<svg width="40" height="40" viewBox="0 0 40 40" fill="none" xmlns="http://www.w3.org/2000/svg">
<path fill-rule="evenodd" clip-rule="evenodd" d="M17.086 9.001C16.219 9.00036 15.3743 9.27573 14.6742 9.78723C13.9742 10.2987 13.4551 11.0198 13.1922 11.846C12.9293 12.6722 12.9363 13.5606 13.212 14.3826C13.4878 15.2046 14.0181 15.9175 14.726 16.418C14.1931 16.7952 13.7585 17.2947 13.4587 17.8747C13.1589 18.4547 13.0026 19.0981 13.003 19.751C13.003 21.127 13.684 22.345 14.728 23.084C14.1561 23.4888 13.698 24.0341 13.3978 24.6672C13.0975 25.3004 12.9653 26.0001 13.0138 26.6991C13.0623 27.3982 13.2899 28.073 13.6747 28.6586C14.0594 29.2442 14.5884 29.721 15.2108 30.0429C15.8331 30.3649 16.5279 30.5214 17.2282 30.4971C17.9285 30.4729 18.6108 30.2689 19.2094 29.9046C19.808 29.5404 20.3028 29.0282 20.6462 28.4174C20.9895 27.8066 21.17 27.1177 21.17 26.417V22.913C21.5948 23.2571 22.0844 23.5125 22.6097 23.6638C23.135 23.8152 23.6853 23.8596 24.2281 23.7942C24.7709 23.7289 25.295 23.5553 25.7694 23.2836C26.2438 23.0119 26.6588 22.6477 26.9898 22.2126C27.3208 21.7776 27.561 21.2804 27.6963 20.7508C27.8316 20.2211 27.8591 19.6696 27.7772 19.1291C27.6954 18.5886 27.5058 18.07 27.2197 17.6041C26.9337 17.1383 26.557 16.7346 26.112 16.417C26.82 15.9165 27.3503 15.2036 27.626 14.3816C27.9018 13.5596 27.9087 12.6712 27.6458 11.845C27.383 11.0188 26.8639 10.2977 26.1638 9.78623C25.4638 9.27473 24.619 8.99936 23.752 9L17.086 9.001ZM19.669 22.334H17.086C16.7468 22.334 16.4109 22.2672 16.0976 22.1374C15.7842 22.0076 15.4994 21.8173 15.2596 21.5775C15.0197 21.3376 14.8295 21.0529 14.6996 20.7395C14.5698 20.4261 14.503 20.0902 14.503 19.751C14.503 19.4118 14.5698 19.0759 14.6996 18.7625C14.8295 18.4491 15.0197 18.1644 15.2596 17.9245C15.4994 17.6847 15.7842 17.4944 16.0976 17.3646C16.4109 17.2348 16.7468 17.168 17.086 17.168H19.669V22.334ZM17.086 15.668H19.669V10.501H17.086C16.4008 10.501 15.7437 10.7732 15.2592 11.2577C14.7747 11.7422 14.5025 12.3993 14.5025 13.0845C14.5025 13.7697 14.7747 14.4268 15.2592 14.9113C15.7437 15.3958 16.4008 15.668 17.086 15.668ZM26.336 13.084C26.3363 13.7687 26.0647 14.4255 25.5809 14.91C25.0971 15.3946 24.4407 15.6672 23.756 15.668H21.169V10.501H23.753C24.0922 10.501 24.4281 10.5678 24.7415 10.6976C25.0549 10.8274 25.3396 11.0177 25.5795 11.2575C25.8193 11.4974 26.0096 11.7821 26.1394 12.0955C26.2692 12.4089 26.336 12.7448 26.336 13.084ZM21.169 19.748C21.1698 19.064 21.4419 18.4082 21.9256 17.9245C22.4092 17.4409 23.065 17.1688 23.749 17.168H23.755C24.2656 17.1686 24.7646 17.3205 25.1889 17.6046C25.6132 17.8886 25.9439 18.2921 26.139 18.7639C26.3341 19.2358 26.385 19.7549 26.2852 20.2557C26.1855 20.7564 25.9395 21.2164 25.5785 21.5775C25.2174 21.9385 24.7575 22.1845 24.2567 22.2842C23.7559 22.384 23.2368 22.3331 22.7649 22.138C22.2931 21.9428 21.8896 21.6122 21.6056 21.1879C21.3215 20.7636 21.1696 20.2646 21.169 19.754V19.748ZM17.086 23.834C16.5752 23.834 16.0758 23.9855 15.6511 24.2692C15.2263 24.553 14.8953 24.9564 14.6997 25.4283C14.5042 25.9002 14.453 26.4195 14.5526 26.9206C14.6522 27.4216 14.8981 27.8818 15.2592 28.2431C15.6204 28.6044 16.0805 28.8505 16.5815 28.9502C17.0825 29.05 17.6018 28.999 18.0738 28.8037C18.5458 28.6083 18.9493 28.2774 19.2332 27.8528C19.5172 27.4281 19.6688 26.9288 19.669 26.418V23.834H17.086Z" fill="#BABABA"/>
<circle cx="20" cy="20" r="19.65" fill="white" fill-opacity="0.04" stroke="#575757" stroke-width="0.7"/>
</svg>
