<svg width="53" height="100" viewBox="0 0 53 100" fill="none" xmlns="http://www.w3.org/2000/svg">
<g clip-path="url(#clip0_119_283)">
<g clip-path="url(#clip1_119_283)">
<path d="M26.5757 31.9999C26.5757 29.1709 27.6995 26.4578 29.6999 24.4574C31.7003 22.4571 34.4134 21.3333 37.2424 21.3333C40.0713 21.3333 42.7844 22.4571 44.7848 24.4574C46.7852 26.4578 47.909 29.1709 47.909 31.9999C47.909 34.8289 46.7852 37.542 44.7848 39.5424C42.7844 41.5428 40.0713 42.6666 37.2424 42.6666C34.4134 42.6666 31.7003 41.5428 29.6999 39.5424C27.6995 37.542 26.5757 34.8289 26.5757 31.9999Z" fill="#1ABCFE"/>
<path d="M5.24219 53.3334C5.24219 50.5044 6.36599 47.7913 8.36638 45.7909C10.3668 43.7906 13.0799 42.6667 15.9089 42.6667H26.5755V53.3334C26.5755 56.1624 25.4517 58.8755 23.4513 60.8759C21.4509 62.8763 18.7378 64.0001 15.9089 64.0001C13.0799 64.0001 10.3668 62.8763 8.36638 60.8759C6.36599 58.8755 5.24219 56.1624 5.24219 53.3334Z" fill="#0ACF83"/>
<path d="M26.5757 0V21.3333H37.2424C40.0713 21.3333 42.7844 20.2095 44.7848 18.2091C46.7852 16.2087 47.909 13.4956 47.909 10.6667C47.909 7.83769 46.7852 5.12458 44.7848 3.12419C42.7844 1.12381 40.0713 0 37.2424 0L26.5757 0Z" fill="#FF7262"/>
<path d="M5.24219 10.6667C5.24219 13.4956 6.36599 16.2087 8.36638 18.2091C10.3668 20.2095 13.0799 21.3333 15.9089 21.3333H26.5755V0H15.9089C13.0799 0 10.3668 1.12381 8.36638 3.12419C6.36599 5.12458 5.24219 7.83769 5.24219 10.6667Z" fill="#F24E1E"/>
<path d="M5.24219 31.9999C5.24219 34.8289 6.36599 37.542 8.36638 39.5424C10.3668 41.5428 13.0799 42.6666 15.9089 42.6666H26.5755V21.3333H15.9089C13.0799 21.3333 10.3668 22.4571 8.36638 24.4574C6.36599 26.4578 5.24219 29.1709 5.24219 31.9999Z" fill="#A259FF"/>
</g>
<path d="M2.16091 93V79.9091H10.0103V81.3153H3.74614V85.7386H9.42227V87.1449H3.74614V93H2.16091ZM12.5208 93V83.1818H14.0293V93H12.5208ZM13.2879 81.5455C12.9938 81.5455 12.7403 81.4453 12.5272 81.245C12.3184 81.0447 12.214 80.804 12.214 80.5227C12.214 80.2415 12.3184 80.0007 12.5272 79.8004C12.7403 79.6001 12.9938 79.5 13.2879 79.5C13.5819 79.5 13.8333 79.6001 14.0421 79.8004C14.2552 80.0007 14.3617 80.2415 14.3617 80.5227C14.3617 80.804 14.2552 81.0447 14.0421 81.245C13.8333 81.4453 13.5819 81.5455 13.2879 81.5455ZM20.7554 96.8864C20.0267 96.8864 19.4003 96.7926 18.8761 96.6051C18.352 96.4219 17.9152 96.179 17.5657 95.8764C17.2206 95.5781 16.9457 95.2585 16.7412 94.9176L17.9429 94.0739C18.0792 94.2528 18.2518 94.4574 18.4606 94.6875C18.6694 94.9219 18.9549 95.1243 19.3172 95.2947C19.6836 95.4695 20.163 95.5568 20.7554 95.5568C21.548 95.5568 22.2021 95.3651 22.7177 94.9815C23.2334 94.598 23.4912 93.9972 23.4912 93.179V91.1847H23.3633C23.2525 91.3636 23.0949 91.5852 22.8903 91.8494C22.69 92.1094 22.4003 92.3416 22.021 92.5462C21.646 92.7464 21.1389 92.8466 20.4997 92.8466C19.7071 92.8466 18.9954 92.6591 18.3647 92.2841C17.7383 91.9091 17.2419 91.3636 16.8754 90.6477C16.5132 89.9318 16.3321 89.0625 16.3321 88.0398C16.3321 87.0341 16.5089 86.1584 16.8626 85.4126C17.2163 84.6626 17.7085 84.0831 18.3392 83.674C18.9699 83.2607 19.6986 83.054 20.5253 83.054C21.1645 83.054 21.6716 83.1605 22.0466 83.3736C22.4258 83.5824 22.7156 83.821 22.9159 84.0895C23.1204 84.3537 23.2781 84.571 23.3889 84.7415H23.5423V83.1818H24.9997V93.2812C24.9997 94.125 24.8079 94.8111 24.4244 95.3395C24.0451 95.8722 23.5338 96.2621 22.8903 96.5092C22.2511 96.7607 21.5395 96.8864 20.7554 96.8864ZM20.7042 91.4915C21.3093 91.4915 21.8207 91.353 22.2383 91.076C22.6559 90.799 22.9734 90.4006 23.1907 89.8807C23.4081 89.3608 23.5167 88.7386 23.5167 88.0142C23.5167 87.3068 23.4102 86.6825 23.1971 86.1413C22.9841 85.6001 22.6687 85.1761 22.2511 84.8693C21.8335 84.5625 21.3179 84.4091 20.7042 84.4091C20.065 84.4091 19.5324 84.571 19.1062 84.8949C18.6843 85.2187 18.3669 85.6534 18.1538 86.1989C17.945 86.7443 17.8406 87.3494 17.8406 88.0142C17.8406 88.696 17.9471 89.299 18.1602 89.8232C18.3775 90.343 18.6971 90.7521 19.119 91.0504C19.5451 91.3445 20.0736 91.4915 20.7042 91.4915ZM27.7611 93V83.1818H29.2184V84.7159H29.3463C29.5508 84.1918 29.8811 83.7848 30.337 83.495C30.793 83.201 31.3406 83.054 31.9798 83.054C32.6275 83.054 33.1666 83.201 33.597 83.495C34.0316 83.7848 34.3704 84.1918 34.6133 84.7159H34.7156C34.967 84.2088 35.3441 83.8061 35.847 83.5078C36.3498 83.2053 36.9528 83.054 37.6559 83.054C38.5338 83.054 39.2518 83.3288 39.8101 83.8786C40.3683 84.424 40.6474 85.2741 40.6474 86.429V93H39.1389V86.429C39.1389 85.7045 38.9407 85.1868 38.5444 84.8757C38.1481 84.5646 37.6815 84.4091 37.1446 84.4091C36.4542 84.4091 35.9194 84.6179 35.5402 85.0355C35.1609 85.4489 34.9713 85.973 34.9713 86.608V93H33.4372V86.2756C33.4372 85.7173 33.2561 85.2678 32.8939 84.9268C32.5316 84.5817 32.065 84.4091 31.494 84.4091C31.102 84.4091 30.7355 84.5135 30.3946 84.7223C30.0579 84.9311 29.7852 85.2209 29.5764 85.5916C29.3718 85.9581 29.2696 86.3821 29.2696 86.8636V93H27.7611ZM46.2948 93.2301C45.6726 93.2301 45.108 93.1129 44.6009 92.8786C44.0938 92.6399 43.6911 92.2969 43.3928 91.8494C43.0945 91.3977 42.9454 90.8523 42.9454 90.2131C42.9454 89.6506 43.0562 89.1946 43.2777 88.8452C43.4993 88.4915 43.7955 88.2145 44.1662 88.0142C44.537 87.8139 44.9461 87.6648 45.3935 87.5668C45.8452 87.4645 46.2991 87.3835 46.755 87.3239C47.3516 87.2472 47.8353 87.1896 48.206 87.1513C48.581 87.1087 48.8537 87.0384 49.0242 86.9403C49.1989 86.8423 49.2863 86.6719 49.2863 86.429V86.3778C49.2863 85.7472 49.1137 85.2571 48.7685 84.9077C48.4276 84.5582 47.9098 84.3835 47.2152 84.3835C46.4951 84.3835 45.9304 84.5412 45.5214 84.8565C45.1123 85.1719 44.8246 85.5085 44.6584 85.8665L43.2266 85.3551C43.4823 84.7585 43.8232 84.294 44.2493 83.9616C44.6797 83.625 45.1485 83.3906 45.6556 83.2585C46.1669 83.1222 46.6698 83.054 47.1641 83.054C47.4794 83.054 47.8417 83.0923 48.2508 83.169C48.6641 83.2415 49.0625 83.3928 49.4461 83.6229C49.8339 83.853 50.1556 84.2003 50.4113 84.6648C50.6669 85.1293 50.7948 85.7514 50.7948 86.5312V93H49.2863V91.6705H49.2096C49.1073 91.8835 48.9368 92.1115 48.6982 92.3544C48.4596 92.5973 48.1421 92.804 47.7458 92.9744C47.3495 93.1449 46.8658 93.2301 46.2948 93.2301ZM46.5249 91.875C47.1215 91.875 47.6243 91.7578 48.0334 91.5234C48.4468 91.2891 48.7579 90.9865 48.9667 90.6158C49.1797 90.245 49.2863 89.8551 49.2863 89.446V88.0653C49.2223 88.142 49.0817 88.2124 48.8644 88.2763C48.6513 88.3359 48.4042 88.3892 48.1229 88.4361C47.8459 88.4787 47.5753 88.517 47.3111 88.5511C47.0512 88.581 46.8402 88.6065 46.6783 88.6278C46.2863 88.679 45.9198 88.7621 45.5789 88.8771C45.2422 88.9879 44.9695 89.1562 44.7607 89.3821C44.5562 89.6037 44.4539 89.9062 44.4539 90.2898C44.4539 90.8139 44.6478 91.2102 45.0356 91.4787C45.4276 91.7429 45.9241 91.875 46.5249 91.875Z" fill="#D1D5DB"/>
</g>
<defs>
<clipPath id="clip0_119_283">
<rect width="52" height="100" fill="white" transform="translate(0.575684)"/>
</clipPath>
<clipPath id="clip1_119_283">
<rect width="42.6667" height="64" fill="white" transform="translate(5.24219)"/>
</clipPath>
</defs>
</svg>
