<svg width="40" height="40" viewBox="0 0 40 40" fill="none" xmlns="http://www.w3.org/2000/svg">
<circle cx="20" cy="20" r="19.65" fill="white" fill-opacity="0.04" stroke="#575757" stroke-width="0.7"/>
<path d="M23 29C23 29 23 26.73 23 26C23 25.37 23.15 24.04 22.5 23.5C23.89 23.37 24.98 22.92 26 22C27.02 21.08 27.5 19.69 27.5 17.5C27.5 16 27.25 15 26.5 14C26.79 13.22 26.84 12 26.5 11C24.94 11 23.53 12.07 23 12.5C22.61 12.4 21.67 12 20 12C18.33 12 17.39 12.4 17 12.5C16.47 12.07 15.06 11 13.5 11C13.16 12 13.21 13.22 13.5 14C12.75 15 12.5 16 12.5 17.5C12.5 19.69 12.98 21.08 14 22C15.02 22.92 16.11 23.37 17.5 23.5C16.85 24.04 17 25.37 17 26C17 26.73 17 29 17 29" stroke="#BABABA" stroke-width="2" stroke-linecap="round" stroke-linejoin="round"/>
<path d="M17 27C15.59 27 14.16 26.44 13.31 25.81C12.47 25.18 12.22 24.15 11 23.5" stroke="#BABABA" stroke-width="2" stroke-linecap="round" stroke-linejoin="round"/>
</svg>
