<svg width="71" height="70" viewBox="0 0 71 70" fill="none" xmlns="http://www.w3.org/2000/svg">
<path fill-rule="evenodd" clip-rule="evenodd" d="M28.8103 40.708C38.3157 40.708 50.9537 41.7784 50.9537 51.0388C50.9537 60.7936 36.2277 61.3789 29.9111 61.4141L27.6177 61.4141C20.8826 61.3791 6.66699 60.7971 6.66699 51.0971C6.66699 41.3313 21.3929 40.7454 27.7096 40.7102L28.4685 40.708C28.5867 40.708 28.7008 40.708 28.8103 40.708ZM28.8103 45.083C20.7049 45.083 11.042 46.1242 11.042 51.0971C11.042 55.0405 17.0212 57.0413 28.8103 57.0413C40.5995 57.0413 46.5787 55.02 46.5787 51.0388C46.5787 47.0867 40.5995 45.083 28.8103 45.083ZM55.3949 39.3456C63.2874 40.5268 64.9411 44.1814 64.9411 47.0368C64.9411 49.1631 64.0224 52.0418 59.6386 53.7014C59.3849 53.7977 59.1224 53.8443 58.8628 53.8443C57.979 53.8443 57.1478 53.3048 56.8182 52.4327C56.3895 51.3039 56.9582 50.0381 58.0869 49.6123C60.5661 48.6731 60.5661 47.5268 60.5661 47.0368C60.5661 45.3831 58.609 44.2514 54.7503 43.6768C53.5545 43.496 52.729 42.3818 52.9069 41.1889C53.0878 39.9931 54.2224 39.191 55.3949 39.3456ZM28.8103 5.83337C37.0674 5.83337 43.7876 12.5534 43.7876 20.8105C43.8049 24.7888 42.262 28.5455 39.4503 31.3746C36.6445 34.2067 32.8966 35.773 28.9095 35.7875H28.8103C20.5503 35.7875 13.8303 29.0675 13.8303 20.8105C13.8303 12.5534 20.5503 5.83337 28.8103 5.83337ZM49.4825 9.11112C55.2137 10.0503 59.3729 14.9532 59.3729 20.7661C59.3612 26.614 54.995 31.6365 49.2142 32.4474C49.1121 32.462 49.01 32.4678 48.9079 32.4678C47.8346 32.4678 46.8983 31.6774 46.7437 30.5836C46.5775 29.3878 47.4087 28.2795 48.6046 28.1132C52.2446 27.6028 54.9921 24.444 54.9979 20.7632C54.9979 17.1057 52.3787 14.0199 48.7767 13.4307C47.5837 13.2324 46.7758 12.1095 46.9712 10.9165C47.1667 9.72362 48.2954 8.92154 49.4825 9.11112ZM28.8103 10.2084C22.9624 10.2084 18.2053 14.9655 18.2053 20.8105C18.2053 26.6555 22.9624 31.4125 28.8103 31.4125H28.9007C31.7124 31.4009 34.3607 30.2955 36.347 28.2917C38.3362 26.2938 39.4241 23.6367 39.4125 20.8192C39.4125 14.9655 34.6553 10.2084 28.8103 10.2084Z" fill="#47B0FB"/>
</svg>
