<svg width="65" height="100" viewBox="0 0 65 100" fill="none" xmlns="http://www.w3.org/2000/svg">
<g clip-path="url(#clip0_119_236)">
<g clip-path="url(#clip1_119_236)">
<mask id="mask0_119_236" style="mask-type:alpha" maskUnits="userSpaceOnUse" x="0" y="0" width="65" height="64">
<path d="M32.877 64C50.5501 64 64.877 49.6731 64.877 32C64.877 14.3269 50.5501 0 32.877 0C15.2038 0 0.876953 14.3269 0.876953 32C0.876953 49.6731 15.2038 64 32.877 64Z" fill="black"/>
</mask>
<g mask="url(#mask0_119_236)">
<path d="M32.8772 62.9333C49.9612 62.9333 63.8105 49.084 63.8105 32C63.8105 14.916 49.9612 1.06665 32.8772 1.06665C15.7932 1.06665 1.94385 14.916 1.94385 32C1.94385 49.084 15.7932 62.9333 32.8772 62.9333Z" fill="black" stroke="white" stroke-width="6"/>
<path d="M54.0355 56.0071L25.461 19.2H20.0771V44.7893H24.3842V24.6697L50.6546 58.6115C51.84 57.8183 52.9692 56.9475 54.0355 56.0071Z" fill="url(#paint0_linear_119_236)"/>
<path d="M46.0328 19.2H41.7661V44.8H46.0328V19.2Z" fill="url(#paint1_linear_119_236)"/>
</g>
</g>
<path d="M15.3429 79.9091V93H13.8088L6.67525 82.7216H6.54741V93H4.96218V79.9091H6.49627L13.6554 90.2131H13.7832V79.9091H15.3429ZM22.4268 93.2045C21.4808 93.2045 20.6648 92.9957 19.9787 92.5781C19.2969 92.1562 18.7706 91.5682 18.3999 90.8139C18.0334 90.0554 17.8501 89.1733 17.8501 88.1676C17.8501 87.1619 18.0334 86.2756 18.3999 85.5085C18.7706 84.7372 19.2862 84.1364 19.9467 83.706C20.6115 83.2713 21.3871 83.054 22.2734 83.054C22.7848 83.054 23.2898 83.1392 23.7884 83.3097C24.2869 83.4801 24.7408 83.7571 25.1499 84.1406C25.5589 84.5199 25.8849 85.0227 26.1278 85.6491C26.3707 86.2756 26.4922 87.0469 26.4922 87.9631V88.6023H18.924V87.2983H24.9581C24.9581 86.7443 24.8473 86.25 24.6257 85.8153C24.4084 85.3807 24.0973 85.0376 23.6925 84.7862C23.2919 84.5348 22.8189 84.4091 22.2734 84.4091C21.6726 84.4091 21.1527 84.5582 20.7138 84.8565C20.2791 85.1506 19.9446 85.5341 19.7102 86.0071C19.4759 86.4801 19.3587 86.9872 19.3587 87.5284V88.3977C19.3587 89.1392 19.4865 89.7678 19.7422 90.2834C20.0021 90.7947 20.3622 91.1847 20.8224 91.4531C21.2827 91.7173 21.8175 91.8494 22.4268 91.8494C22.8232 91.8494 23.1811 91.794 23.5007 91.6832C23.8246 91.5682 24.1037 91.3977 24.3381 91.1719C24.5724 90.9418 24.7536 90.6562 24.8814 90.3153L26.3388 90.7244C26.1854 91.2188 25.9276 91.6534 25.5653 92.0284C25.2031 92.3991 24.7557 92.6889 24.223 92.8977C23.6903 93.1023 23.0916 93.2045 22.4268 93.2045ZM29.6483 83.1818L32.0005 87.196L34.3528 83.1818H36.0914L32.921 88.0909L36.0914 93H34.3528L32.0005 89.1903L29.6483 93H27.9096L31.0289 88.0909L27.9096 83.1818H29.6483ZM42.5138 83.1818V84.4602H37.4258V83.1818H42.5138ZM38.9087 80.8295H40.4173V90.1875C40.4173 90.6136 40.479 90.9332 40.6026 91.1463C40.7305 91.3551 40.8924 91.4957 41.0884 91.5682C41.2887 91.6364 41.4996 91.6705 41.7212 91.6705C41.8874 91.6705 42.0238 91.6619 42.1303 91.6449C42.2369 91.6236 42.3221 91.6065 42.386 91.5938L42.6928 92.9489C42.5906 92.9872 42.4478 93.0256 42.2646 93.0639C42.0813 93.1065 41.8491 93.1278 41.5678 93.1278C41.1417 93.1278 40.7241 93.0362 40.315 92.853C39.9102 92.6697 39.5735 92.3906 39.305 92.0156C39.0408 91.6406 38.9087 91.1676 38.9087 90.5966V80.8295ZM45.8825 93.1023C45.5671 93.1023 45.2965 92.9893 45.0707 92.7635C44.8448 92.5376 44.7319 92.267 44.7319 91.9517C44.7319 91.6364 44.8448 91.3658 45.0707 91.1399C45.2965 90.9141 45.5671 90.8011 45.8825 90.8011C46.1978 90.8011 46.4684 90.9141 46.6942 91.1399C46.9201 91.3658 47.033 91.6364 47.033 91.9517C47.033 92.1605 46.9798 92.3523 46.8732 92.527C46.771 92.7017 46.6325 92.8423 46.4577 92.9489C46.2873 93.0511 46.0955 93.1023 45.8825 93.1023ZM49.7401 83.1818H51.2486V93.7159C51.2486 94.321 51.1442 94.8452 50.9354 95.2884C50.7308 95.7315 50.4197 96.0746 50.0021 96.3175C49.5888 96.5604 49.0668 96.6818 48.4361 96.6818C48.3849 96.6818 48.3338 96.6818 48.2827 96.6818C48.2315 96.6818 48.1804 96.6818 48.1293 96.6818V95.2756C48.1804 95.2756 48.2273 95.2756 48.2699 95.2756C48.3125 95.2756 48.3594 95.2756 48.4105 95.2756C48.8707 95.2756 49.2074 95.1392 49.4205 94.8665C49.6335 94.598 49.7401 94.2145 49.7401 93.7159V83.1818ZM50.4815 81.5455C50.1875 81.5455 49.9339 81.4453 49.7209 81.245C49.5121 81.0447 49.4077 80.804 49.4077 80.5227C49.4077 80.2415 49.5121 80.0007 49.7209 79.8004C49.9339 79.6001 50.1875 79.5 50.4815 79.5C50.7756 79.5 51.027 79.6001 51.2358 79.8004C51.4489 80.0007 51.5554 80.2415 51.5554 80.5227C51.5554 80.804 51.4489 81.0447 51.2358 81.245C51.027 81.4453 50.7756 81.5455 50.4815 81.5455ZM60.9661 85.3807L59.611 85.7642C59.5257 85.5384 59.4 85.3189 59.2338 85.1058C59.0719 84.8885 58.8503 84.7095 58.5691 84.5689C58.2878 84.4283 57.9277 84.358 57.4888 84.358C56.888 84.358 56.3873 84.4964 55.9867 84.7734C55.5904 85.0462 55.3922 85.3935 55.3922 85.8153C55.3922 86.1903 55.5286 86.4865 55.8013 86.7038C56.074 86.9212 56.5002 87.1023 57.0797 87.2472L58.5371 87.6051C59.415 87.8182 60.0691 88.1442 60.4995 88.5831C60.9299 89.0178 61.1451 89.5781 61.1451 90.2642C61.1451 90.8267 60.9831 91.3295 60.6593 91.7727C60.3397 92.2159 59.8922 92.5653 59.3169 92.821C58.7417 93.0767 58.0726 93.2045 57.3098 93.2045C56.3084 93.2045 55.4796 92.9872 54.8233 92.5526C54.1671 92.1179 53.7516 91.483 53.5769 90.6477L55.0087 90.2898C55.1451 90.8182 55.4029 91.2145 55.7821 91.4787C56.1657 91.7429 56.6664 91.875 57.2843 91.875C57.9874 91.875 58.5456 91.7259 58.959 91.4276C59.3766 91.125 59.5854 90.7628 59.5854 90.3409C59.5854 90 59.4661 89.7145 59.2275 89.4844C58.9888 89.25 58.6223 89.0753 58.128 88.9602L56.4917 88.5767C55.5925 88.3636 54.932 88.0334 54.5101 87.5859C54.0925 87.1342 53.8837 86.5696 53.8837 85.892C53.8837 85.3381 54.0392 84.848 54.3503 84.4219C54.6657 83.9957 55.0939 83.6612 55.6351 83.4183C56.1806 83.1754 56.7985 83.054 57.4888 83.054C58.4604 83.054 59.2232 83.267 59.7772 83.6932C60.3354 84.1193 60.7317 84.6818 60.9661 85.3807Z" fill="#D1D5DB"/>
</g>
<defs>
<linearGradient id="paint0_linear_119_236" x1="39.6327" y1="41.4222" x2="52.2549" y2="57.0666" gradientUnits="userSpaceOnUse">
<stop stop-color="white"/>
<stop offset="1" stop-color="white" stop-opacity="0"/>
</linearGradient>
<linearGradient id="paint1_linear_119_236" x1="43.8994" y1="19.2" x2="43.828" y2="38" gradientUnits="userSpaceOnUse">
<stop stop-color="white"/>
<stop offset="1" stop-color="white" stop-opacity="0"/>
</linearGradient>
<clipPath id="clip0_119_236">
<rect width="64" height="100" fill="white" transform="translate(0.876953)"/>
</clipPath>
<clipPath id="clip1_119_236">
<rect width="64" height="64" fill="white" transform="translate(0.876953)"/>
</clipPath>
</defs>
</svg>
