<svg width="66" height="100" viewBox="0 0 66 100" fill="none" xmlns="http://www.w3.org/2000/svg">
<g clip-path="url(#clip0_119_246)">
<g clip-path="url(#clip1_119_246)">
<path d="M32.8287 64C31.9708 64 31.17 63.7668 30.4264 63.3586L22.8191 58.7517C21.6752 58.1102 22.2471 57.877 22.5903 57.7603C24.1347 57.2355 24.4206 57.1189 26.0222 56.1859C26.1938 56.0692 26.4225 56.1275 26.5941 56.2442L32.4283 59.8014C32.6572 59.918 32.9431 59.918 33.1147 59.8014L55.9367 46.3307C56.1654 46.214 56.2798 45.9808 56.2798 45.6892V18.806C56.2798 18.5145 56.1654 18.2812 55.9367 18.1646L33.1147 4.75223C32.8859 4.63561 32.5999 4.63561 32.4283 4.75223L9.60638 18.1646C9.37759 18.2812 9.26319 18.5728 9.26319 18.806V45.6892C9.26319 45.9224 9.37759 46.214 9.60638 46.3307L15.841 50.0045C19.2156 51.7539 21.3319 49.7129 21.3319 47.6719V21.1386C21.3319 20.7888 21.618 20.4389 22.0183 20.4389H24.9354C25.2786 20.4389 25.6218 20.7305 25.6218 21.1386V47.6719C25.6218 52.2788 23.1622 54.9613 18.8724 54.9613C17.5569 54.9613 16.5273 54.9613 13.6102 53.5034L7.60446 50.0045C6.11732 49.1297 5.20215 47.4969 5.20215 45.7475V18.8644C5.20215 17.115 6.11732 15.4822 7.60446 14.6074L30.4264 1.13672C31.8564 0.320313 33.8011 0.320313 35.2311 1.13672L58.053 14.6074C59.5401 15.4822 60.4553 17.115 60.4553 18.8644V45.7475C60.4553 47.4969 59.5401 49.1297 58.053 50.0045L35.2311 63.4752C34.5447 63.7668 33.6867 64 32.8287 64Z" fill="#5FA04E"/>
<path d="M39.9213 45.5143C29.9116 45.5143 27.8525 40.8491 27.8525 36.8837C27.8525 36.5339 28.1385 36.184 28.5388 36.184H31.5132C31.8563 36.184 32.1424 36.4172 32.1424 36.7671C32.5999 39.8577 33.9155 41.374 39.9785 41.374C44.783 41.374 46.8422 40.266 46.8422 37.6418C46.8422 36.1256 46.2702 35.0176 38.7773 34.2595C32.5427 33.6181 28.6533 32.2186 28.6533 27.1451C28.6533 22.4216 32.5427 19.6226 39.0633 19.6226C46.3846 19.6226 49.988 22.1884 50.4457 27.7866C50.4457 27.9616 50.3885 28.1365 50.2741 28.3115C50.1597 28.4281 49.988 28.5447 49.8165 28.5447H46.785C46.499 28.5447 46.213 28.3115 46.1558 28.0198C45.4694 24.8126 43.6963 23.7629 39.0061 23.7629C33.7438 23.7629 33.1147 25.629 33.1147 27.0285C33.1147 28.7196 33.8583 29.2445 40.9508 30.1775C47.9861 31.1106 51.3036 32.4518 51.3036 37.4669C51.3036 42.5986 47.1282 45.5143 39.9213 45.5143Z" fill="#5FA04E"/>
</g>
<path d="M12.1954 79.9091V93H10.6613L3.52779 82.7216H3.39995V93H1.81472V79.9091H3.34881L10.5079 90.2131H10.6357V79.9091H12.1954ZM19.1515 93.2045C18.2652 93.2045 17.4875 92.9936 16.8184 92.5717C16.1537 92.1499 15.6338 91.5597 15.2588 90.8011C14.8881 90.0426 14.7027 89.1562 14.7027 88.142C14.7027 87.1193 14.8881 86.2266 15.2588 85.4638C15.6338 84.701 16.1537 84.1087 16.8184 83.6868C17.4875 83.2649 18.2652 83.054 19.1515 83.054C20.0379 83.054 20.8135 83.2649 21.4782 83.6868C22.1473 84.1087 22.6672 84.701 23.0379 85.4638C23.4129 86.2266 23.6004 87.1193 23.6004 88.142C23.6004 89.1562 23.4129 90.0426 23.0379 90.8011C22.6672 91.5597 22.1473 92.1499 21.4782 92.5717C20.8135 92.9936 20.0379 93.2045 19.1515 93.2045ZM19.1515 91.8494C19.8248 91.8494 20.3788 91.6768 20.8135 91.3317C21.2481 90.9865 21.5699 90.5327 21.7787 89.9702C21.9875 89.4077 22.0919 88.7983 22.0919 88.142C22.0919 87.4858 21.9875 86.8743 21.7787 86.3075C21.5699 85.7408 21.2481 85.2827 20.8135 84.9332C20.3788 84.5838 19.8248 84.4091 19.1515 84.4091C18.4782 84.4091 17.9243 84.5838 17.4896 84.9332C17.055 85.2827 16.7332 85.7408 16.5244 86.3075C16.3156 86.8743 16.2112 87.4858 16.2112 88.142C16.2112 88.7983 16.3156 89.4077 16.5244 89.9702C16.7332 90.5327 17.055 90.9865 17.4896 91.3317C17.9243 91.6768 18.4782 91.8494 19.1515 91.8494ZM29.6105 93.2045C28.7923 93.2045 28.07 92.9979 27.4436 92.5845C26.8172 92.1669 26.3271 91.5788 25.9735 90.8203C25.6198 90.0575 25.4429 89.1562 25.4429 88.1165C25.4429 87.0852 25.6198 86.1903 25.9735 85.4318C26.3271 84.6733 26.8193 84.0874 27.45 83.674C28.0807 83.2607 28.8094 83.054 29.6361 83.054C30.2753 83.054 30.7803 83.1605 31.151 83.3736C31.526 83.5824 31.8115 83.821 32.0075 84.0895C32.2078 84.3537 32.3634 84.571 32.4742 84.7415H32.602V79.9091H34.1105V93H32.6531V91.4915H32.4742C32.3634 91.6705 32.2057 91.8963 32.0012 92.169C31.7966 92.4375 31.5047 92.6783 31.1254 92.8913C30.7462 93.1001 30.2412 93.2045 29.6105 93.2045ZM29.8151 91.8494C30.4202 91.8494 30.9316 91.6918 31.3492 91.3764C31.7668 91.0568 32.0843 90.6158 32.3016 90.0533C32.5189 89.4865 32.6276 88.8324 32.6276 88.0909C32.6276 87.358 32.521 86.7166 32.308 86.1669C32.0949 85.6129 31.7796 85.1825 31.3619 84.8757C30.9443 84.5646 30.4287 84.4091 29.8151 84.4091C29.1759 84.4091 28.6432 84.5732 28.2171 84.9013C27.7952 85.2251 27.4777 85.6662 27.2646 86.2244C27.0558 86.7784 26.9514 87.4006 26.9514 88.0909C26.9514 88.7898 27.058 89.4247 27.271 89.9957C27.4884 90.5625 27.808 91.0142 28.2298 91.3509C28.656 91.6832 29.1844 91.8494 29.8151 91.8494ZM41.1993 93.2045C40.2533 93.2045 39.4372 92.9957 38.7512 92.5781C38.0693 92.1562 37.5431 91.5682 37.1723 90.8139C36.8058 90.0554 36.6226 89.1733 36.6226 88.1676C36.6226 87.1619 36.8058 86.2756 37.1723 85.5085C37.5431 84.7372 38.0587 84.1364 38.7192 83.706C39.384 83.2713 40.1595 83.054 41.0459 83.054C41.5573 83.054 42.0622 83.1392 42.5608 83.3097C43.0594 83.4801 43.5132 83.7571 43.9223 84.1406C44.3314 84.5199 44.6574 85.0227 44.9003 85.6491C45.1432 86.2756 45.2646 87.0469 45.2646 87.9631V88.6023H37.6965V87.2983H43.7306C43.7306 86.7443 43.6198 86.25 43.3982 85.8153C43.1808 85.3807 42.8698 85.0376 42.4649 84.7862C42.0644 84.5348 41.5914 84.4091 41.0459 84.4091C40.445 84.4091 39.9252 84.5582 39.4862 84.8565C39.0516 85.1506 38.7171 85.5341 38.4827 86.0071C38.2483 86.4801 38.1311 86.9872 38.1311 87.5284V88.3977C38.1311 89.1392 38.259 89.7678 38.5146 90.2834C38.7746 90.7947 39.1347 91.1847 39.5949 91.4531C40.0551 91.7173 40.5899 91.8494 41.1993 91.8494C41.5956 91.8494 41.9536 91.794 42.2732 91.6832C42.597 91.5682 42.8762 91.3977 43.1105 91.1719C43.3449 90.9418 43.526 90.6562 43.6539 90.3153L45.1112 90.7244C44.9578 91.2188 44.7 91.6534 44.3378 92.0284C43.9756 92.3991 43.5281 92.6889 42.9955 92.8977C42.4628 93.1023 41.8641 93.2045 41.1993 93.2045ZM48.6588 93.1023C48.3435 93.1023 48.0729 92.9893 47.847 92.7635C47.6212 92.5376 47.5083 92.267 47.5083 91.9517C47.5083 91.6364 47.6212 91.3658 47.847 91.1399C48.0729 90.9141 48.3435 90.8011 48.6588 90.8011C48.9742 90.8011 49.2448 90.9141 49.4706 91.1399C49.6965 91.3658 49.8094 91.6364 49.8094 91.9517C49.8094 92.1605 49.7561 92.3523 49.6496 92.527C49.5473 92.7017 49.4088 92.8423 49.2341 92.9489C49.0637 93.0511 48.8719 93.1023 48.6588 93.1023ZM52.5164 83.1818H54.0249V93.7159C54.0249 94.321 53.9205 94.8452 53.7117 95.2884C53.5072 95.7315 53.1961 96.0746 52.7785 96.3175C52.3651 96.5604 51.8431 96.6818 51.2124 96.6818C51.1613 96.6818 51.1102 96.6818 51.059 96.6818C51.0079 96.6818 50.9568 96.6818 50.9056 96.6818V95.2756C50.9568 95.2756 51.0036 95.2756 51.0463 95.2756C51.0889 95.2756 51.1357 95.2756 51.1869 95.2756C51.6471 95.2756 51.9838 95.1392 52.1968 94.8665C52.4099 94.598 52.5164 94.2145 52.5164 93.7159V83.1818ZM53.2579 81.5455C52.9639 81.5455 52.7103 81.4453 52.4972 81.245C52.2884 81.0447 52.184 80.804 52.184 80.5227C52.184 80.2415 52.2884 80.0007 52.4972 79.8004C52.7103 79.6001 52.9639 79.5 53.2579 79.5C53.5519 79.5 53.8034 79.6001 54.0122 79.8004C54.2252 80.0007 54.3318 80.2415 54.3318 80.5227C54.3318 80.804 54.2252 81.0447 54.0122 81.245C53.8034 81.4453 53.5519 81.5455 53.2579 81.5455ZM63.7425 85.3807L62.3873 85.7642C62.3021 85.5384 62.1764 85.3189 62.0102 85.1058C61.8483 84.8885 61.6267 84.7095 61.3454 84.5689C61.0642 84.4283 60.7041 84.358 60.2652 84.358C59.6643 84.358 59.1636 84.4964 58.7631 84.7734C58.3667 85.0462 58.1686 85.3935 58.1686 85.8153C58.1686 86.1903 58.305 86.4865 58.5777 86.7038C58.8504 86.9212 59.2765 87.1023 59.8561 87.2472L61.3135 87.6051C62.1913 87.8182 62.8454 88.1442 63.2758 88.5831C63.7062 89.0178 63.9214 89.5781 63.9214 90.2642C63.9214 90.8267 63.7595 91.3295 63.4356 91.7727C63.116 92.2159 62.6686 92.5653 62.0933 92.821C61.518 93.0767 60.849 93.2045 60.0862 93.2045C59.0848 93.2045 58.2559 92.9872 57.5997 92.5526C56.9434 92.1179 56.528 91.483 56.3532 90.6477L57.7851 90.2898C57.9214 90.8182 58.1792 91.2145 58.5585 91.4787C58.942 91.7429 59.4427 91.875 60.0606 91.875C60.7638 91.875 61.322 91.7259 61.7354 91.4276C62.153 91.125 62.3618 90.7628 62.3618 90.3409C62.3618 90 62.2425 89.7145 62.0038 89.4844C61.7652 89.25 61.3987 89.0753 60.9044 88.9602L59.268 88.5767C58.3689 88.3636 57.7084 88.0334 57.2865 87.5859C56.8689 87.1342 56.6601 86.5696 56.6601 85.892C56.6601 85.3381 56.8156 84.848 57.1267 84.4219C57.442 83.9957 57.8703 83.6612 58.4115 83.4183C58.9569 83.1754 59.5748 83.054 60.2652 83.054C61.2368 83.054 61.9996 83.267 62.5535 83.6932C63.1118 84.1193 63.5081 84.6818 63.7425 85.3807Z" fill="#D1D5DB"/>
</g>
<defs>
<clipPath id="clip0_119_246">
<rect width="65" height="100" fill="white" transform="translate(0.229492)"/>
</clipPath>
<clipPath id="clip1_119_246">
<rect width="56.32" height="64" fill="white" transform="translate(4.56934)"/>
</clipPath>
</defs>
</svg>
