<svg width="71" height="100" viewBox="0 0 71 100" fill="none" xmlns="http://www.w3.org/2000/svg">
<g clip-path="url(#clip0_119_228)">
<g clip-path="url(#clip1_119_228)">
<path d="M35.6147 38.7725C39.287 38.7725 42.264 35.7404 42.264 32C42.264 28.2597 39.287 25.2275 35.6147 25.2275C31.9423 25.2275 28.9653 28.2597 28.9653 32C28.9653 35.7404 31.9423 38.7725 35.6147 38.7725Z" fill="#087EA4"/>
<path d="M35.6144 47.2382C53.9761 47.2382 68.8612 40.4158 68.8612 32.0001C68.8612 23.5843 53.9761 16.762 35.6144 16.762C17.2528 16.762 2.36768 23.5843 2.36768 32.0001C2.36768 40.4158 17.2528 47.2382 35.6144 47.2382Z" stroke="#087EA4" stroke-width="3"/>
<path d="M22.6578 39.619C31.8387 55.8152 45.0821 65.5336 52.2379 61.3257C59.3936 57.1178 57.752 40.5771 48.5711 24.3809C39.3903 8.18475 26.1469 -1.53366 18.9911 2.67422C11.8354 6.88211 13.477 23.4228 22.6578 39.619Z" stroke="#087EA4" stroke-width="3"/>
<path d="M22.6577 24.3808C13.4768 40.577 11.8352 57.1177 18.9909 61.3256C26.1467 65.5335 39.3901 55.8151 48.571 39.6189C57.7518 23.4228 59.3935 6.88205 52.2377 2.67416C45.0819 -1.53372 31.8385 8.18469 22.6577 24.3808Z" stroke="#087EA4" stroke-width="3"/>
</g>
<path d="M12.7 93V79.9091H17.1233C18.146 79.9091 18.9855 80.0838 19.6417 80.4332C20.298 80.7784 20.7838 81.2536 21.0991 81.8587C21.4145 82.4638 21.5721 83.152 21.5721 83.9233C21.5721 84.6946 21.4145 85.3786 21.0991 85.9751C20.7838 86.5717 20.3001 87.0405 19.6481 87.3814C18.9961 87.718 18.163 87.8864 17.1488 87.8864H13.5693V86.4545H17.0977C17.7966 86.4545 18.3591 86.3523 18.7852 86.1477C19.2156 85.9432 19.5267 85.6534 19.7184 85.2784C19.9145 84.8991 20.0125 84.4474 20.0125 83.9233C20.0125 83.3991 19.9145 82.9411 19.7184 82.549C19.5224 82.157 19.2092 81.8544 18.7788 81.6413C18.3484 81.424 17.7795 81.3153 17.0721 81.3153H14.2852V93H12.7ZM18.8619 87.1193L22.0835 93H20.2426L17.0721 87.1193H18.8619ZM28.0201 93.2045C27.0741 93.2045 26.258 92.9957 25.572 92.5781C24.8901 92.1562 24.3639 91.5682 23.9931 90.8139C23.6266 90.0554 23.4434 89.1733 23.4434 88.1676C23.4434 87.1619 23.6266 86.2756 23.9931 85.5085C24.3639 84.7372 24.8795 84.1364 25.54 83.706C26.2048 83.2713 26.9803 83.054 27.8667 83.054C28.3781 83.054 28.883 83.1392 29.3816 83.3097C29.8802 83.4801 30.334 83.7571 30.7431 84.1406C31.1522 84.5199 31.4782 85.0227 31.7211 85.6491C31.964 86.2756 32.0854 87.0469 32.0854 87.9631V88.6023H24.5173V87.2983H30.5514C30.5514 86.7443 30.4406 86.25 30.219 85.8153C30.0016 85.3807 29.6906 85.0376 29.2857 84.7862C28.8852 84.5348 28.4122 84.4091 27.8667 84.4091C27.2658 84.4091 26.746 84.5582 26.307 84.8565C25.8724 85.1506 25.5379 85.5341 25.3035 86.0071C25.0691 86.4801 24.9519 86.9872 24.9519 87.5284V88.3977C24.9519 89.1392 25.0798 89.7678 25.3354 90.2834C25.5954 90.7947 25.9555 91.1847 26.4157 91.4531C26.8759 91.7173 27.4107 91.8494 28.0201 91.8494C28.4164 91.8494 28.7744 91.794 29.094 91.6832C29.4178 91.5682 29.697 91.3977 29.9313 91.1719C30.1657 90.9418 30.3468 90.6562 30.4747 90.3153L31.932 90.7244C31.7786 91.2188 31.5208 91.6534 31.1586 92.0284C30.7964 92.3991 30.3489 92.6889 29.8163 92.8977C29.2836 93.1023 28.6849 93.2045 28.0201 93.2045ZM37.2694 93.2301C36.6472 93.2301 36.0826 93.1129 35.5755 92.8786C35.0684 92.6399 34.6657 92.2969 34.3674 91.8494C34.0691 91.3977 33.92 90.8523 33.92 90.2131C33.92 89.6506 34.0308 89.1946 34.2524 88.8452C34.4739 88.4915 34.7701 88.2145 35.1408 88.0142C35.5116 87.8139 35.9207 87.6648 36.3681 87.5668C36.8198 87.4645 37.2737 87.3835 37.7296 87.3239C38.3262 87.2472 38.8099 87.1896 39.1806 87.1513C39.5556 87.1087 39.8283 87.0384 39.9988 86.9403C40.1735 86.8423 40.2609 86.6719 40.2609 86.429V86.3778C40.2609 85.7472 40.0883 85.2571 39.7431 84.9077C39.4022 84.5582 38.8845 84.3835 38.1899 84.3835C37.4697 84.3835 36.9051 84.5412 36.496 84.8565C36.0869 85.1719 35.7992 85.5085 35.633 85.8665L34.2012 85.3551C34.4569 84.7585 34.7978 84.294 35.2239 83.9616C35.6543 83.625 36.1231 83.3906 36.6302 83.2585C37.1416 83.1222 37.6444 83.054 38.1387 83.054C38.4541 83.054 38.8163 83.0923 39.2254 83.169C39.6387 83.2415 40.0372 83.3928 40.4207 83.6229C40.8085 83.853 41.1302 84.2003 41.3859 84.6648C41.6416 85.1293 41.7694 85.7514 41.7694 86.5312V93H40.2609V91.6705H40.1842C40.0819 91.8835 39.9114 92.1115 39.6728 92.3544C39.4342 92.5973 39.1167 92.804 38.7204 92.9744C38.3241 93.1449 37.8404 93.2301 37.2694 93.2301ZM37.4995 91.875C38.0961 91.875 38.5989 91.7578 39.008 91.5234C39.4214 91.2891 39.7325 90.9865 39.9413 90.6158C40.1543 90.245 40.2609 89.8551 40.2609 89.446V88.0653C40.197 88.142 40.0563 88.2124 39.839 88.2763C39.6259 88.3359 39.3788 88.3892 39.0975 88.4361C38.8205 88.4787 38.5499 88.517 38.2857 88.5511C38.0258 88.581 37.8149 88.6065 37.6529 88.6278C37.2609 88.679 36.8944 88.7621 36.5535 88.8771C36.2168 88.9879 35.9441 89.1562 35.7353 89.3821C35.5308 89.6037 35.4285 89.9062 35.4285 90.2898C35.4285 90.8139 35.6224 91.2102 36.0102 91.4787C36.4022 91.7429 36.8987 91.875 37.4995 91.875ZM48.5114 93.2045C47.591 93.2045 46.7983 92.9872 46.1336 92.5526C45.4688 92.1179 44.9574 91.5192 44.5995 90.7564C44.2415 89.9936 44.0625 89.1222 44.0625 88.142C44.0625 87.1449 44.2458 86.2649 44.6123 85.5021C44.983 84.7351 45.4986 84.1364 46.1591 83.706C46.8239 83.2713 47.5995 83.054 48.4858 83.054C49.1762 83.054 49.7983 83.1818 50.3523 83.4375C50.9063 83.6932 51.3601 84.0511 51.7138 84.5114C52.0675 84.9716 52.287 85.5085 52.3722 86.1222H50.8637C50.7486 85.6747 50.4929 85.2784 50.0966 84.9332C49.7046 84.5838 49.1762 84.4091 48.5114 84.4091C47.9233 84.4091 47.4077 84.5625 46.9645 84.8693C46.5256 85.1719 46.1826 85.6001 45.9354 86.1541C45.6925 86.7038 45.5711 87.3494 45.5711 88.0909C45.5711 88.8494 45.6904 89.5099 45.929 90.0724C46.1719 90.6349 46.5128 91.0717 46.9517 91.3828C47.3949 91.6939 47.9148 91.8494 48.5114 91.8494C48.9035 91.8494 49.2593 91.7812 49.5789 91.6449C49.8985 91.5085 50.1691 91.3125 50.3907 91.0568C50.6123 90.8011 50.7699 90.4943 50.8637 90.1364H52.3722C52.287 90.7159 52.076 91.2379 51.7394 91.7024C51.407 92.1626 50.966 92.5291 50.4162 92.8018C49.8708 93.0703 49.2358 93.2045 48.5114 93.2045ZM58.8473 83.1818V84.4602H53.7593V83.1818H58.8473ZM55.2422 80.8295H56.7508V90.1875C56.7508 90.6136 56.8125 90.9332 56.9361 91.1463C57.064 91.3551 57.2259 91.4957 57.4219 91.5682C57.6222 91.6364 57.8331 91.6705 58.0547 91.6705C58.2209 91.6705 58.3573 91.6619 58.4638 91.6449C58.5704 91.6236 58.6556 91.6065 58.7195 91.5938L59.0263 92.9489C58.9241 92.9872 58.7813 93.0256 58.5981 93.0639C58.4148 93.1065 58.1826 93.1278 57.9013 93.1278C57.4752 93.1278 57.0576 93.0362 56.6485 92.853C56.2437 92.6697 55.907 92.3906 55.6385 92.0156C55.3743 91.6406 55.2422 91.1676 55.2422 90.5966V80.8295Z" fill="#D1D5DB"/>
</g>
<defs>
<clipPath id="clip0_119_228">
<rect width="69.8182" height="100" fill="white" transform="translate(0.705566)"/>
</clipPath>
<clipPath id="clip1_119_228">
<rect width="69.8182" height="64" fill="white" transform="translate(0.705566)"/>
</clipPath>
</defs>
</svg>
