<svg width="89" height="100" viewBox="0 0 89 100" fill="none" xmlns="http://www.w3.org/2000/svg">
<g clip-path="url(#clip0_119_271)">
<path d="M65.5803 34.6079C63.5297 34.6186 61.7537 35.1106 60.2657 35.8452C59.7217 34.7586 59.1697 33.8026 59.0777 33.0919C58.9697 32.2626 58.8443 31.7666 58.975 30.7786C59.1057 29.7906 59.6777 28.3906 59.6697 28.2852C59.6617 28.1799 59.5417 27.6772 58.359 27.6679C57.1763 27.6599 56.1643 27.8959 56.0457 28.2079C55.927 28.5199 55.699 29.2226 55.5577 29.9559C55.351 31.0279 53.1963 34.8532 51.9737 36.8532C51.5737 36.0719 51.2337 35.3839 51.163 34.8399C51.055 34.0106 50.9297 33.5146 51.0603 32.5266C51.191 31.5386 51.763 30.1386 51.755 30.0332C51.747 29.9279 51.627 29.4252 50.4443 29.4159C49.2617 29.4079 48.2497 29.6439 48.131 29.9559C48.0123 30.2679 47.8843 30.9972 47.643 31.7039C47.4003 32.4092 44.5377 38.7892 43.787 40.4439C43.4043 41.2866 43.0723 41.9639 42.8377 42.4252L42.8363 42.4226C42.8363 42.4226 42.8217 42.4532 42.7977 42.5052C42.5963 42.8986 42.4777 43.1159 42.4777 43.1159C42.4777 43.1159 42.479 43.1186 42.4817 43.1239C42.3217 43.4132 42.151 43.6812 42.067 43.6812C42.0083 43.6812 41.8897 42.9119 42.0923 41.8559C42.519 39.6426 43.5417 36.1919 43.5323 36.0719C43.527 36.0106 43.723 35.4092 42.8643 35.0946C42.0297 34.7892 41.7323 35.2986 41.6563 35.2999C41.583 35.3012 41.5283 35.4799 41.5283 35.4799C41.5283 35.4799 42.4577 31.5986 39.755 31.5986C38.0643 31.5986 35.723 33.4479 34.5697 35.1239C33.8417 35.5212 32.283 36.3719 30.631 37.2799C29.9963 37.6292 29.3483 37.9852 28.7337 38.3239C28.6923 38.2772 28.6497 38.2319 28.607 38.1852C25.3283 34.6879 19.2697 32.2146 19.5257 27.5119C19.619 25.8026 20.2137 21.3012 31.1697 15.8426C40.1443 11.3706 47.3297 12.6012 48.571 15.3279C50.3443 19.2252 44.731 26.4666 35.411 27.5119C31.8603 27.9106 29.9897 26.5332 29.5243 26.0212C29.035 25.4812 28.9617 25.4572 28.779 25.5586C28.4817 25.7239 28.6697 26.1999 28.779 26.4839C29.0577 27.2079 30.199 28.4919 32.1457 29.1319C33.859 29.6946 38.0283 30.0026 43.0697 28.0519C48.7177 25.8679 53.127 19.7906 51.831 14.7119C50.5137 9.54658 41.9483 7.84791 33.8417 10.7279C29.011 12.4426 23.7883 15.1332 20.0323 18.6452C15.567 22.8212 14.855 26.4572 15.1483 27.9759C16.191 33.3732 23.6297 36.8879 26.6083 39.4919C26.4617 39.5732 26.323 39.6492 26.1977 39.7186C24.7043 40.4572 19.0337 43.4252 17.615 46.5599C16.0057 50.1159 17.871 52.6679 19.1057 53.0119C22.931 54.0759 26.8563 52.1612 28.967 49.0146C31.0763 45.8692 30.819 41.7719 29.851 39.9026C29.839 39.8799 29.8257 39.8572 29.8137 39.8332C30.199 39.6052 30.5923 39.3732 30.9817 39.1439C31.7417 38.6972 32.4883 38.2812 33.135 37.9292C32.7723 38.9212 32.507 40.1119 32.3697 41.8306C32.207 43.8492 33.035 46.4586 34.1177 47.4852C34.595 47.9372 35.1683 47.9479 35.531 47.9479C36.791 47.9479 37.3657 46.8999 37.999 45.6599C38.775 44.1399 39.4643 42.3692 39.4643 42.3692C39.4643 42.3692 38.6003 47.1506 40.955 47.1506C41.8137 47.1506 42.6763 46.0372 43.0617 45.4706C43.063 45.4772 43.063 45.4799 43.063 45.4799C43.063 45.4799 43.0857 45.4426 43.1297 45.3692C43.219 45.2332 43.2697 45.1466 43.2697 45.1466C43.2697 45.1466 43.271 45.1372 43.2737 45.1212C43.619 44.5226 44.3843 43.1572 45.531 40.9052C47.0137 37.9959 48.435 34.3506 48.435 34.3506C48.435 34.3506 48.567 35.2412 49.0003 36.7159C49.255 37.5826 49.7963 38.5412 50.2243 39.4612C49.8803 39.9386 49.6697 40.2119 49.6697 40.2119C49.6697 40.2119 49.671 40.2172 49.675 40.2266C49.4003 40.5919 49.0923 40.9852 48.7697 41.3692C47.599 42.7626 46.2057 44.3546 46.019 44.8132C45.799 45.3546 45.851 45.7519 46.2763 46.0732C46.587 46.3066 47.139 46.3439 47.7163 46.3052C48.7683 46.2346 49.507 45.9732 49.8723 45.8146C50.4417 45.6132 51.1043 45.2972 51.7257 44.8399C52.8737 43.9959 53.5657 42.7892 53.499 41.1892C53.4617 40.3079 53.1817 39.4346 52.8257 38.6106C52.9297 38.4612 53.0337 38.3092 53.139 38.1572C54.9483 35.5119 56.3523 32.6052 56.3523 32.6052C56.3523 32.6052 56.4843 33.4959 56.9177 34.9706C57.1363 35.7159 57.5697 36.5306 57.959 37.3279C56.2577 38.7106 55.203 40.3172 54.8363 41.3706C54.159 43.3199 54.6897 44.2026 55.6843 44.4039C56.135 44.4946 56.7723 44.2879 57.251 44.0852C57.847 43.8879 58.563 43.5586 59.2323 43.0666C60.3803 42.2226 61.4843 41.0412 61.4177 39.4426C61.387 38.7146 61.1897 37.9919 60.9217 37.2986C62.3643 36.6972 64.231 36.3639 66.6097 36.6412C71.7123 37.2372 72.7123 40.4226 72.5217 41.7559C72.3297 43.0892 71.2603 43.8226 70.9017 44.0439C70.5443 44.2652 70.435 44.3426 70.4643 44.5066C70.5083 44.7452 70.6737 44.7372 70.979 44.6852C71.399 44.6146 73.6577 43.6012 73.755 41.1399C73.8763 38.0119 70.883 34.5799 65.5803 34.6079ZM26.251 47.8666C24.5603 49.7106 22.2003 50.4066 21.187 49.8199C20.0937 49.1866 20.527 46.4719 22.6003 44.5146C23.8643 43.3226 25.4963 42.2239 26.579 41.5479C26.8257 41.3999 27.187 41.1826 27.627 40.9186C27.7003 40.8772 27.7417 40.8546 27.7417 40.8546L27.7403 40.8519C27.8257 40.8012 27.9123 40.7492 28.0017 40.6946C28.7577 43.4799 28.0257 45.9319 26.251 47.8666ZM38.5643 39.4972C37.9763 40.9319 36.7443 44.6039 35.9937 44.4066C35.3497 44.2372 34.9577 41.4466 35.8657 38.6999C36.3217 37.3172 37.2977 35.6652 37.871 35.0239C38.7937 33.9919 39.8097 33.6546 40.0563 34.0732C40.3697 34.6066 38.9337 38.5972 38.5643 39.4972ZM48.7363 44.3506C48.487 44.4812 48.2577 44.5626 48.1523 44.4999C48.0737 44.4532 48.255 44.2812 48.255 44.2812C48.255 44.2812 49.527 42.9119 50.0283 42.2892C50.3203 41.9266 50.6577 41.4959 51.0257 41.0159C51.0283 41.0639 51.0297 41.1119 51.0297 41.1586C51.027 42.7986 49.443 43.9052 48.7363 44.3506ZM56.5723 42.5639C56.3857 42.4319 56.4177 42.0039 57.0297 40.6692C57.2697 40.1452 57.819 39.2639 58.771 38.4212C58.8817 38.7679 58.9483 39.0999 58.947 39.4092C58.935 41.4732 57.463 42.2439 56.5723 42.5639Z" fill="#F06292"/>
<path d="M9.16863 83.1818C9.09193 82.5341 8.78085 82.0312 8.2354 81.6733C7.68994 81.3153 7.02091 81.1364 6.22829 81.1364C5.64875 81.1364 5.14165 81.2301 4.70699 81.4176C4.27659 81.6051 3.93994 81.8629 3.69704 82.1911C3.45841 82.5192 3.33909 82.892 3.33909 83.3097C3.33909 83.6591 3.42219 83.9595 3.58838 84.2109C3.75883 84.4581 3.97616 84.6648 4.24037 84.831C4.50457 84.9929 4.78156 85.1271 5.07133 85.2337C5.36111 85.3359 5.62744 85.419 5.87034 85.483L7.19988 85.8409C7.54079 85.9304 7.92006 86.054 8.33767 86.2116C8.75954 86.3693 9.16224 86.5845 9.54577 86.8572C9.93355 87.1257 10.2532 87.4709 10.5046 87.8928C10.756 88.3146 10.8817 88.8324 10.8817 89.446C10.8817 90.1534 10.6963 90.7926 10.3256 91.3636C9.95912 91.9347 9.42219 92.3885 8.7148 92.7251C8.01167 93.0618 7.15727 93.2301 6.15159 93.2301C5.21409 93.2301 4.4023 93.0788 3.71622 92.7763C3.0344 92.4737 2.49747 92.0518 2.10542 91.5107C1.71764 90.9695 1.49818 90.3409 1.44704 89.625H3.08341C3.12602 90.1193 3.29221 90.5284 3.58199 90.8523C3.87602 91.1719 4.24676 91.4105 4.6942 91.5682C5.14591 91.7216 5.6317 91.7983 6.15159 91.7983C6.7567 91.7983 7.30003 91.7003 7.78156 91.5043C8.2631 91.304 8.64449 91.027 8.92574 90.6733C9.20699 90.3153 9.34761 89.8977 9.34761 89.4205C9.34761 88.9858 9.22616 88.6321 8.98327 88.3594C8.74037 88.0866 8.42077 87.8651 8.02446 87.6946C7.62815 87.5241 7.19988 87.375 6.73966 87.2472L5.12886 86.7869C4.10613 86.4929 3.29648 86.0732 2.69988 85.5277C2.10329 84.9822 1.805 84.2685 1.805 83.3864C1.805 82.6534 2.00315 82.0142 2.39946 81.4688C2.80003 80.919 3.33696 80.4929 4.01025 80.1903C4.68781 79.8835 5.4442 79.7301 6.27943 79.7301C7.12318 79.7301 7.87318 79.8814 8.52943 80.1839C9.18568 80.4822 9.70557 80.8913 10.0891 81.4112C10.4769 81.9311 10.6814 82.5213 10.7027 83.1818H9.16863ZM16.1727 93.2301C15.5506 93.2301 14.9859 93.1129 14.4788 92.8786C13.9717 92.6399 13.569 92.2969 13.2707 91.8494C12.9724 91.3977 12.8233 90.8523 12.8233 90.2131C12.8233 89.6506 12.9341 89.1946 13.1557 88.8452C13.3773 88.4915 13.6734 88.2145 14.0442 88.0142C14.4149 87.8139 14.824 87.6648 15.2714 87.5668C15.7231 87.4645 16.177 87.3835 16.6329 87.3239C17.2295 87.2472 17.7132 87.1896 18.0839 87.1513C18.4589 87.1087 18.7317 87.0384 18.9021 86.9403C19.0768 86.8423 19.1642 86.6719 19.1642 86.429V86.3778C19.1642 85.7472 18.9916 85.2571 18.6464 84.9077C18.3055 84.5582 17.7878 84.3835 17.0932 84.3835C16.373 84.3835 15.8084 84.5412 15.3993 84.8565C14.9902 85.1719 14.7025 85.5085 14.5364 85.8665L13.1045 85.3551C13.3602 84.7585 13.7011 84.294 14.1273 83.9616C14.5577 83.625 15.0264 83.3906 15.5335 83.2585C16.0449 83.1222 16.5477 83.054 17.042 83.054C17.3574 83.054 17.7196 83.0923 18.1287 83.169C18.542 83.2415 18.9405 83.3928 19.324 83.6229C19.7118 83.853 20.0335 84.2003 20.2892 84.6648C20.5449 85.1293 20.6727 85.7514 20.6727 86.5312V93H19.1642V91.6705H19.0875C18.9852 91.8835 18.8148 92.1115 18.5761 92.3544C18.3375 92.5973 18.02 92.804 17.6237 92.9744C17.2274 93.1449 16.7437 93.2301 16.1727 93.2301ZM16.4028 91.875C16.9994 91.875 17.5023 91.7578 17.9114 91.5234C18.3247 91.2891 18.6358 90.9865 18.8446 90.6158C19.0577 90.245 19.1642 89.8551 19.1642 89.446V88.0653C19.1003 88.142 18.9597 88.2124 18.7423 88.2763C18.5293 88.3359 18.2821 88.3892 18.0008 88.4361C17.7239 88.4787 17.4533 88.517 17.1891 88.5511C16.9291 88.581 16.7182 88.6065 16.5562 88.6278C16.1642 88.679 15.7977 88.7621 15.4568 88.8771C15.1202 88.9879 14.8474 89.1562 14.6386 89.3821C14.4341 89.6037 14.3318 89.9062 14.3318 90.2898C14.3318 90.8139 14.5257 91.2102 14.9135 91.4787C15.3055 91.7429 15.802 91.875 16.4028 91.875ZM30.3806 85.3807L29.0255 85.7642C28.9403 85.5384 28.8146 85.3189 28.6484 85.1058C28.4865 84.8885 28.2649 84.7095 27.9836 84.5689C27.7024 84.4283 27.3423 84.358 26.9034 84.358C26.3025 84.358 25.8018 84.4964 25.4012 84.7734C25.0049 85.0462 24.8068 85.3935 24.8068 85.8153C24.8068 86.1903 24.9431 86.4865 25.2159 86.7038C25.4886 86.9212 25.9147 87.1023 26.4943 87.2472L27.9517 87.6051C28.8295 87.8182 29.4836 88.1442 29.914 88.5831C30.3444 89.0178 30.5596 89.5781 30.5596 90.2642C30.5596 90.8267 30.3977 91.3295 30.0738 91.7727C29.7542 92.2159 29.3068 92.5653 28.7315 92.821C28.1562 93.0767 27.4872 93.2045 26.7244 93.2045C25.723 93.2045 24.8941 92.9872 24.2379 92.5526C23.5816 92.1179 23.1661 91.483 22.9914 90.6477L24.4233 90.2898C24.5596 90.8182 24.8174 91.2145 25.1967 91.4787C25.5802 91.7429 26.0809 91.875 26.6988 91.875C27.4019 91.875 27.9602 91.7259 28.3735 91.4276C28.7911 91.125 29 90.7628 29 90.3409C29 90 28.8806 89.7145 28.642 89.4844C28.4034 89.25 28.0369 89.0753 27.5426 88.9602L25.9062 88.5767C25.0071 88.3636 24.3465 88.0334 23.9247 87.5859C23.5071 87.1342 23.2983 86.5696 23.2983 85.892C23.2983 85.3381 23.4538 84.848 23.7649 84.4219C24.0802 83.9957 24.5085 83.6612 25.0497 83.4183C25.5951 83.1754 26.213 83.054 26.9034 83.054C27.875 83.054 28.6377 83.267 29.1917 83.6932C29.75 84.1193 30.1463 84.6818 30.3806 85.3807ZM39.7849 85.3807L38.4298 85.7642C38.3446 85.5384 38.2189 85.3189 38.0527 85.1058C37.8908 84.8885 37.6692 84.7095 37.3879 84.5689C37.1067 84.4283 36.7466 84.358 36.3077 84.358C35.7068 84.358 35.2061 84.4964 34.8055 84.7734C34.4092 85.0462 34.2111 85.3935 34.2111 85.8153C34.2111 86.1903 34.3474 86.4865 34.6202 86.7038C34.8929 86.9212 35.319 87.1023 35.8986 87.2472L37.356 87.6051C38.2338 87.8182 38.8879 88.1442 39.3183 88.5831C39.7487 89.0178 39.9639 89.5781 39.9639 90.2642C39.9639 90.8267 39.802 91.3295 39.4781 91.7727C39.1585 92.2159 38.7111 92.5653 38.1358 92.821C37.5605 93.0767 36.8915 93.2045 36.1287 93.2045C35.1273 93.2045 34.2984 92.9872 33.6422 92.5526C32.9859 92.1179 32.5704 91.483 32.3957 90.6477L33.8275 90.2898C33.9639 90.8182 34.2217 91.2145 34.601 91.4787C34.9845 91.7429 35.4852 91.875 36.1031 91.875C36.8062 91.875 37.3645 91.7259 37.7778 91.4276C38.1954 91.125 38.4043 90.7628 38.4043 90.3409C38.4043 90 38.2849 89.7145 38.0463 89.4844C37.8077 89.25 37.4412 89.0753 36.9469 88.9602L35.3105 88.5767C34.4114 88.3636 33.7508 88.0334 33.329 87.5859C32.9114 87.1342 32.7025 86.5696 32.7025 85.892C32.7025 85.3381 32.8581 84.848 33.1692 84.4219C33.4845 83.9957 33.9128 83.6612 34.454 83.4183C34.9994 83.1754 35.6173 83.054 36.3077 83.054C37.2793 83.054 38.042 83.267 38.596 83.6932C39.1543 84.1193 39.5506 84.6818 39.7849 85.3807ZM46.8625 79.2955L42.6438 94.9688H41.2631L45.4818 79.2955H46.8625ZM56.0143 83.1818C55.9376 82.5341 55.6266 82.0312 55.0811 81.6733C54.5356 81.3153 53.8666 81.1364 53.074 81.1364C52.4945 81.1364 51.9873 81.2301 51.5527 81.4176C51.1223 81.6051 50.7856 81.8629 50.5427 82.1911C50.3041 82.5192 50.1848 82.892 50.1848 83.3097C50.1848 83.6591 50.2679 83.9595 50.4341 84.2109C50.6045 84.4581 50.8219 84.6648 51.0861 84.831C51.3503 84.9929 51.6273 85.1271 51.917 85.2337C52.2068 85.3359 52.4731 85.419 52.716 85.483L54.0456 85.8409C54.3865 85.9304 54.7658 86.054 55.1834 86.2116C55.6052 86.3693 56.0079 86.5845 56.3915 86.8572C56.7793 87.1257 57.0989 87.4709 57.3503 87.8928C57.6017 88.3146 57.7274 88.8324 57.7274 89.446C57.7274 90.1534 57.542 90.7926 57.1713 91.3636C56.8048 91.9347 56.2679 92.3885 55.5605 92.7251C54.8574 93.0618 54.003 93.2301 52.9973 93.2301C52.0598 93.2301 51.248 93.0788 50.5619 92.7763C49.8801 92.4737 49.3432 92.0518 48.9511 91.5107C48.5633 90.9695 48.3439 90.3409 48.2927 89.625H49.9291C49.9717 90.1193 50.1379 90.5284 50.4277 90.8523C50.7217 91.1719 51.0925 91.4105 51.5399 91.5682C51.9916 91.7216 52.4774 91.7983 52.9973 91.7983C53.6024 91.7983 54.1457 91.7003 54.6273 91.5043C55.1088 91.304 55.4902 91.027 55.7714 90.6733C56.0527 90.3153 56.1933 89.8977 56.1933 89.4205C56.1933 88.9858 56.0719 88.6321 55.829 88.3594C55.5861 88.0866 55.2665 87.8651 54.8702 87.6946C54.4739 87.5241 54.0456 87.375 53.5854 87.2472L51.9746 86.7869C50.9518 86.4929 50.1422 86.0732 49.5456 85.5277C48.949 84.9822 48.6507 84.2685 48.6507 83.3864C48.6507 82.6534 48.8489 82.0142 49.2452 81.4688C49.6457 80.919 50.1827 80.4929 50.856 80.1903C51.5335 79.8835 52.2899 79.7301 53.1251 79.7301C53.9689 79.7301 54.7189 79.8814 55.3751 80.1839C56.0314 80.4822 56.5513 80.8913 56.9348 81.4112C57.3226 81.9311 57.5271 82.5213 57.5484 83.1818H56.0143ZM64.1179 93.2045C63.1974 93.2045 62.4048 92.9872 61.74 92.5526C61.0752 92.1179 60.5639 91.5192 60.2059 90.7564C59.848 89.9936 59.669 89.1222 59.669 88.142C59.669 87.1449 59.8522 86.2649 60.2187 85.5021C60.5894 84.7351 61.1051 84.1364 61.7656 83.706C62.4304 83.2713 63.2059 83.054 64.0923 83.054C64.7826 83.054 65.4048 83.1818 65.9588 83.4375C66.5127 83.6932 66.9666 84.0511 67.3203 84.5114C67.674 84.9716 67.8934 85.5085 67.9786 86.1222H66.4701C66.3551 85.6747 66.0994 85.2784 65.7031 84.9332C65.311 84.5838 64.7826 84.4091 64.1179 84.4091C63.5298 84.4091 63.0142 84.5625 62.571 84.8693C62.1321 85.1719 61.789 85.6001 61.5419 86.1541C61.299 86.7038 61.1775 87.3494 61.1775 88.0909C61.1775 88.8494 61.2968 89.5099 61.5355 90.0724C61.7784 90.6349 62.1193 91.0717 62.5582 91.3828C63.0014 91.6939 63.5213 91.8494 64.1179 91.8494C64.5099 91.8494 64.8657 91.7812 65.1853 91.6449C65.5049 91.5085 65.7755 91.3125 65.9971 91.0568C66.2187 90.8011 66.3764 90.4943 66.4701 90.1364H67.9786C67.8934 90.7159 67.6825 91.2379 67.3458 91.7024C67.0135 92.1626 66.5724 92.5291 66.0227 92.8018C65.4772 93.0703 64.8423 93.2045 64.1179 93.2045ZM77.1385 85.3807L75.7833 85.7642C75.6981 85.5384 75.5724 85.3189 75.4062 85.1058C75.2443 84.8885 75.0227 84.7095 74.7414 84.5689C74.4602 84.4283 74.1001 84.358 73.6612 84.358C73.0603 84.358 72.5596 84.4964 72.159 84.7734C71.7627 85.0462 71.5646 85.3935 71.5646 85.8153C71.5646 86.1903 71.701 86.4865 71.9737 86.7038C72.2464 86.9212 72.6725 87.1023 73.2521 87.2472L74.7095 87.6051C75.5873 87.8182 76.2414 88.1442 76.6718 88.5831C77.1022 89.0178 77.3174 89.5781 77.3174 90.2642C77.3174 90.8267 77.1555 91.3295 76.8316 91.7727C76.512 92.2159 76.0646 92.5653 75.4893 92.821C74.914 93.0767 74.245 93.2045 73.4822 93.2045C72.4808 93.2045 71.6519 92.9872 70.9957 92.5526C70.3394 92.1179 69.924 91.483 69.7492 90.6477L71.1811 90.2898C71.3174 90.8182 71.5752 91.2145 71.9545 91.4787C72.338 91.7429 72.8387 91.875 73.4566 91.875C74.1598 91.875 74.718 91.7259 75.1313 91.4276C75.549 91.125 75.7578 90.7628 75.7578 90.3409C75.7578 90 75.6385 89.7145 75.3998 89.4844C75.1612 89.25 74.7947 89.0753 74.3004 88.9602L72.664 88.5767C71.7649 88.3636 71.1044 88.0334 70.6825 87.5859C70.2649 87.1342 70.0561 86.5696 70.0561 85.892C70.0561 85.3381 70.2116 84.848 70.5227 84.4219C70.838 83.9957 71.2663 83.6612 71.8075 83.4183C72.3529 83.1754 72.9708 83.054 73.6612 83.054C74.6328 83.054 75.3956 83.267 75.9495 83.6932C76.5078 84.1193 76.9041 84.6818 77.1385 85.3807ZM86.5427 85.3807L85.1876 85.7642C85.1024 85.5384 84.9767 85.3189 84.8105 85.1058C84.6486 84.8885 84.427 84.7095 84.1457 84.5689C83.8645 84.4283 83.5044 84.358 83.0655 84.358C82.4646 84.358 81.9639 84.4964 81.5633 84.7734C81.167 85.0462 80.9689 85.3935 80.9689 85.8153C80.9689 86.1903 81.1052 86.4865 81.378 86.7038C81.6507 86.9212 82.0768 87.1023 82.6564 87.2472L84.1138 87.6051C84.9916 87.8182 85.6457 88.1442 86.0761 88.5831C86.5065 89.0178 86.7217 89.5781 86.7217 90.2642C86.7217 90.8267 86.5598 91.3295 86.2359 91.7727C85.9163 92.2159 85.4689 92.5653 84.8936 92.821C84.3183 93.0767 83.6493 93.2045 82.8865 93.2045C81.8851 93.2045 81.0562 92.9872 80.4 92.5526C79.7437 92.1179 79.3283 91.483 79.1535 90.6477L80.5854 90.2898C80.7217 90.8182 80.9795 91.2145 81.3588 91.4787C81.7423 91.7429 82.243 91.875 82.8609 91.875C83.5641 91.875 84.1223 91.7259 84.5356 91.4276C84.9533 91.125 85.1621 90.7628 85.1621 90.3409C85.1621 90 85.0427 89.7145 84.8041 89.4844C84.5655 89.25 84.199 89.0753 83.7047 88.9602L82.0683 88.5767C81.1692 88.3636 80.5087 88.0334 80.0868 87.5859C79.6692 87.1342 79.4604 86.5696 79.4604 85.892C79.4604 85.3381 79.6159 84.848 79.927 84.4219C80.2423 83.9957 80.6706 83.6612 81.2118 83.4183C81.7572 83.1754 82.3751 83.054 83.0655 83.054C84.0371 83.054 84.7998 83.267 85.3538 83.6932C85.9121 84.1193 86.3084 84.6818 86.5427 85.3807Z" fill="#D1D5DB"/>
</g>
<defs>
<clipPath id="clip0_119_271">
<rect width="88" height="100" fill="white" transform="translate(0.424316)"/>
</clipPath>
</defs>
</svg>
