<svg width="89" height="100" viewBox="0 0 89 100" fill="none" xmlns="http://www.w3.org/2000/svg">
<g clip-path="url(#clip0_119_300)">
<path fill-rule="evenodd" clip-rule="evenodd" d="M23.7627 55.604L22.0267 9.37595C21.9721 7.84929 23.1454 6.55729 24.6694 6.46395L55.4801 4.53729L57.8334 5.33329L60.8934 4.19862L63.9814 4.00529C65.5321 3.90662 66.8694 5.08395 66.9694 6.63462C66.9734 6.69462 66.9747 6.75595 66.9747 6.81729V57.1866C66.9734 58.7426 65.7107 60.0026 64.1547 60.0013C64.1134 60.0013 64.0721 60 64.0321 59.9986L26.4507 58.3106C24.9867 58.2453 23.8187 57.0693 23.7627 55.604Z" fill="#FF4081"/>
<path fill-rule="evenodd" clip-rule="evenodd" d="M60.8904 4.19873L55.4811 4.53473L55.2184 10.8827C55.2091 11.1147 55.3891 11.3094 55.6211 11.3201C55.7184 11.3241 55.8131 11.2947 55.8904 11.2361L58.3544 9.3654L60.4371 11.0067C60.6184 11.1507 60.8838 11.1201 61.0264 10.9387C61.0878 10.8601 61.1198 10.7627 61.1171 10.6627L60.8931 4.20006L60.8904 4.19873ZM56.6798 25.4507C55.6918 26.2201 48.3104 26.7441 48.3104 25.6494C48.4678 21.4694 46.5971 21.2867 45.5558 21.2867C44.5704 21.2867 42.9064 21.5841 42.9064 23.8241C42.9064 26.1054 45.3371 27.3934 48.1904 28.9054C52.2424 31.0534 57.1504 33.6547 57.1504 40.1947C57.1504 46.4667 52.0544 49.9281 45.5584 49.9281C38.8531 49.9281 32.9918 47.2147 33.6531 37.8094C33.9131 36.7067 42.4398 36.9694 42.4398 37.8094C42.3331 41.6907 43.2184 42.8321 45.4531 42.8321C47.1691 42.8321 47.9478 41.8854 47.9478 40.2947C47.9478 37.8841 45.4171 36.4614 42.5024 34.8267C38.5571 32.6121 33.9144 30.0054 33.9144 24.0214C33.9144 18.0521 38.0198 14.0707 45.3491 14.0707C52.6784 14.0707 56.6798 17.9921 56.6798 25.4507Z" fill="white"/>
<path d="M8.74432 83.1818C8.66761 82.5341 8.35653 82.0312 7.81108 81.6733C7.26563 81.3153 6.59659 81.1364 5.80398 81.1364C5.22443 81.1364 4.71733 81.2301 4.28267 81.4176C3.85227 81.6051 3.51563 81.8629 3.27273 82.1911C3.03409 82.5192 2.91477 82.892 2.91477 83.3097C2.91477 83.6591 2.99787 83.9595 3.16406 84.2109C3.33452 84.4581 3.55185 84.6648 3.81605 84.831C4.08026 84.9929 4.35724 85.1271 4.64702 85.2337C4.93679 85.3359 5.20312 85.419 5.44602 85.483L6.77557 85.8409C7.11648 85.9304 7.49574 86.054 7.91335 86.2116C8.33523 86.3693 8.73793 86.5845 9.12145 86.8572C9.50923 87.1257 9.82884 87.4709 10.0803 87.8928C10.3317 88.3146 10.4574 88.8324 10.4574 89.446C10.4574 90.1534 10.272 90.7926 9.90128 91.3636C9.5348 91.9347 8.99787 92.3885 8.29048 92.7251C7.58736 93.0618 6.73295 93.2301 5.72727 93.2301C4.78977 93.2301 3.97798 93.0788 3.2919 92.7763C2.61009 92.4737 2.07315 92.0518 1.68111 91.5107C1.29332 90.9695 1.07386 90.3409 1.02273 89.625H2.65909C2.7017 90.1193 2.8679 90.5284 3.15767 90.8523C3.4517 91.1719 3.82244 91.4105 4.26989 91.5682C4.72159 91.7216 5.20739 91.7983 5.72727 91.7983C6.33239 91.7983 6.87571 91.7003 7.35724 91.5043C7.83878 91.304 8.22017 91.027 8.50142 90.6733C8.78267 90.3153 8.9233 89.8977 8.9233 89.4205C8.9233 88.9858 8.80185 88.6321 8.55895 88.3594C8.31605 88.0866 7.99645 87.8651 7.60014 87.6946C7.20384 87.5241 6.77557 87.375 6.31534 87.2472L4.70455 86.7869C3.68182 86.4929 2.87216 86.0732 2.27557 85.5277C1.67898 84.9822 1.38068 84.2685 1.38068 83.3864C1.38068 82.6534 1.57884 82.0142 1.97514 81.4688C2.37571 80.919 2.91264 80.4929 3.58594 80.1903C4.26349 79.8835 5.01989 79.7301 5.85511 79.7301C6.69886 79.7301 7.44886 79.8814 8.10511 80.1839C8.76136 80.4822 9.28125 80.8913 9.66477 81.4112C10.0526 81.9311 10.2571 82.5213 10.2784 83.1818H8.74432ZM17.1291 83.1818V84.4602H12.041V83.1818H17.1291ZM13.524 80.8295H15.0325V90.1875C15.0325 90.6136 15.0943 90.9332 15.2179 91.1463C15.3457 91.3551 15.5076 91.4957 15.7037 91.5682C15.9039 91.6364 16.1149 91.6705 16.3365 91.6705C16.5027 91.6705 16.639 91.6619 16.7456 91.6449C16.8521 91.6236 16.9373 91.6065 17.0012 91.5938L17.3081 92.9489C17.2058 92.9872 17.063 93.0256 16.8798 93.0639C16.6966 93.1065 16.4643 93.1278 16.1831 93.1278C15.7569 93.1278 15.3393 93.0362 14.9302 92.853C14.5254 92.6697 14.1887 92.3906 13.9203 92.0156C13.6561 91.6406 13.524 91.1676 13.524 90.5966V80.8295ZM23.2814 93.2045C22.3951 93.2045 21.6174 92.9936 20.9483 92.5717C20.2836 92.1499 19.7637 91.5597 19.3887 90.8011C19.0179 90.0426 18.8326 89.1562 18.8326 88.142C18.8326 87.1193 19.0179 86.2266 19.3887 85.4638C19.7637 84.701 20.2836 84.1087 20.9483 83.6868C21.6174 83.2649 22.3951 83.054 23.2814 83.054C24.1678 83.054 24.9434 83.2649 25.6081 83.6868C26.2772 84.1087 26.7971 84.701 27.1678 85.4638C27.5428 86.2266 27.7303 87.1193 27.7303 88.142C27.7303 89.1562 27.5428 90.0426 27.1678 90.8011C26.7971 91.5597 26.2772 92.1499 25.6081 92.5717C24.9434 92.9936 24.1678 93.2045 23.2814 93.2045ZM23.2814 91.8494C23.9547 91.8494 24.5087 91.6768 24.9434 91.3317C25.378 90.9865 25.6998 90.5327 25.9086 89.9702C26.1174 89.4077 26.2218 88.7983 26.2218 88.142C26.2218 87.4858 26.1174 86.8743 25.9086 86.3075C25.6998 85.7408 25.378 85.2827 24.9434 84.9332C24.5087 84.5838 23.9547 84.4091 23.2814 84.4091C22.6081 84.4091 22.0542 84.5838 21.6195 84.9332C21.1848 85.2827 20.8631 85.7408 20.6543 86.3075C20.4455 86.8743 20.3411 87.4858 20.3411 88.142C20.3411 88.7983 20.4455 89.4077 20.6543 89.9702C20.8631 90.5327 21.1848 90.9865 21.6195 91.3317C22.0542 91.6768 22.6081 91.8494 23.2814 91.8494ZM30.033 93V83.1818H31.4904V84.6648H31.5927C31.7717 84.179 32.0955 83.7848 32.5643 83.4822C33.033 83.1797 33.5614 83.0284 34.1495 83.0284C34.2603 83.0284 34.3988 83.0305 34.565 83.0348C34.7312 83.0391 34.8569 83.0455 34.9421 83.054V84.5881C34.891 84.5753 34.7738 84.5561 34.5906 84.5305C34.4116 84.5007 34.2219 84.4858 34.0217 84.4858C33.5444 84.4858 33.1183 84.5859 32.7433 84.7862C32.3725 84.9822 32.0785 85.255 31.8612 85.6044C31.6481 85.9496 31.5415 86.3437 31.5415 86.7869V93H30.033ZM38.0007 96.6818C37.745 96.6818 37.517 96.6605 37.3168 96.6179C37.1165 96.5795 36.978 96.5412 36.9013 96.5028L37.2848 95.1733C37.6513 95.267 37.9751 95.3011 38.2564 95.2756C38.5376 95.25 38.7869 95.1243 39.0043 94.8984C39.2259 94.6768 39.4283 94.3168 39.6115 93.8182L39.8928 93.0511L36.2621 83.1818H37.8984L40.6087 91.0057H40.7109L43.4212 83.1818H45.0575L40.8899 94.4318C40.7024 94.9389 40.4702 95.3587 40.1932 95.6911C39.9162 96.0277 39.5945 96.277 39.228 96.4389C38.8658 96.6009 38.4567 96.6818 38.0007 96.6818ZM47.2532 93V79.9091H48.7617V84.7415H48.8896C49.0004 84.571 49.1538 84.3537 49.3498 84.0895C49.5501 83.821 49.8356 83.5824 50.2063 83.3736C50.5813 83.1605 51.0884 83.054 51.7276 83.054C52.5543 83.054 53.283 83.2607 53.9137 83.674C54.5444 84.0874 55.0366 84.6733 55.3903 85.4318C55.744 86.1903 55.9208 87.0852 55.9208 88.1165C55.9208 89.1562 55.744 90.0575 55.3903 90.8203C55.0366 91.5788 54.5465 92.1669 53.9201 92.5845C53.2937 92.9979 52.5714 93.2045 51.7532 93.2045C51.1225 93.2045 50.6175 93.1001 50.2383 92.8913C49.859 92.6783 49.5671 92.4375 49.3626 92.169C49.158 91.8963 49.0004 91.6705 48.8896 91.4915H48.7106V93H47.2532ZM48.7362 88.0909C48.7362 88.8324 48.8448 89.4865 49.0621 90.0533C49.2795 90.6158 49.5969 91.0568 50.0146 91.3764C50.4322 91.6918 50.9435 91.8494 51.5487 91.8494C52.1793 91.8494 52.7056 91.6832 53.1275 91.3509C53.5536 91.0142 53.8732 90.5625 54.0863 89.9957C54.3036 89.4247 54.4123 88.7898 54.4123 88.0909C54.4123 87.4006 54.3058 86.7784 54.0927 86.2244C53.8839 85.6662 53.5664 85.2251 53.1403 84.9013C52.7184 84.5732 52.1879 84.4091 51.5487 84.4091C50.935 84.4091 50.4194 84.5646 50.0018 84.8757C49.5842 85.1825 49.2688 85.6129 49.0558 86.1669C48.8427 86.7166 48.7362 87.358 48.7362 88.0909ZM62.217 93.2045C61.3306 93.2045 60.5529 92.9936 59.8839 92.5717C59.2191 92.1499 58.6992 91.5597 58.3242 90.8011C57.9535 90.0426 57.7681 89.1562 57.7681 88.142C57.7681 87.1193 57.9535 86.2266 58.3242 85.4638C58.6992 84.701 59.2191 84.1087 59.8839 83.6868C60.5529 83.2649 61.3306 83.054 62.217 83.054C63.1033 83.054 63.8789 83.2649 64.5437 83.6868C65.2127 84.1087 65.7326 84.701 66.1033 85.4638C66.4783 86.2266 66.6658 87.1193 66.6658 88.142C66.6658 89.1562 66.4783 90.0426 66.1033 90.8011C65.7326 91.5597 65.2127 92.1499 64.5437 92.5717C63.8789 92.9936 63.1033 93.2045 62.217 93.2045ZM62.217 91.8494C62.8903 91.8494 63.4442 91.6768 63.8789 91.3317C64.3136 90.9865 64.6353 90.5327 64.8441 89.9702C65.0529 89.4077 65.1573 88.7983 65.1573 88.142C65.1573 87.4858 65.0529 86.8743 64.8441 86.3075C64.6353 85.7408 64.3136 85.2827 63.8789 84.9332C63.4442 84.5838 62.8903 84.4091 62.217 84.4091C61.5437 84.4091 60.9897 84.5838 60.555 84.9332C60.1204 85.2827 59.7987 85.7408 59.5898 86.3075C59.381 86.8743 59.2766 87.4858 59.2766 88.142C59.2766 88.7983 59.381 89.4077 59.5898 89.9702C59.7987 90.5327 60.1204 90.9865 60.555 91.3317C60.9897 91.6768 61.5437 91.8494 62.217 91.8494ZM72.9572 93.2045C72.0708 93.2045 71.2931 92.9936 70.6241 92.5717C69.9593 92.1499 69.4395 91.5597 69.0645 90.8011C68.6937 90.0426 68.5083 89.1562 68.5083 88.142C68.5083 87.1193 68.6937 86.2266 69.0645 85.4638C69.4395 84.701 69.9593 84.1087 70.6241 83.6868C71.2931 83.2649 72.0708 83.054 72.9572 83.054C73.8436 83.054 74.6191 83.2649 75.2839 83.6868C75.9529 84.1087 76.4728 84.701 76.8436 85.4638C77.2186 86.2266 77.4061 87.1193 77.4061 88.142C77.4061 89.1562 77.2186 90.0426 76.8436 90.8011C76.4728 91.5597 75.9529 92.1499 75.2839 92.5717C74.6191 92.9936 73.8436 93.2045 72.9572 93.2045ZM72.9572 91.8494C73.6305 91.8494 74.1845 91.6768 74.6191 91.3317C75.0538 90.9865 75.3755 90.5327 75.5843 89.9702C75.7931 89.4077 75.8976 88.7983 75.8976 88.142C75.8976 87.4858 75.7931 86.8743 75.5843 86.3075C75.3755 85.7408 75.0538 85.2827 74.6191 84.9332C74.1845 84.5838 73.6305 84.4091 72.9572 84.4091C72.2839 84.4091 71.7299 84.5838 71.2953 84.9332C70.8606 85.2827 70.5389 85.7408 70.3301 86.3075C70.1213 86.8743 70.0169 87.4858 70.0169 88.142C70.0169 88.7983 70.1213 89.4077 70.3301 89.9702C70.5389 90.5327 70.8606 90.9865 71.2953 91.3317C71.7299 91.6768 72.2839 91.8494 72.9572 91.8494ZM81.1151 89.4205L81.0895 87.554H81.3963L85.6918 83.1818H87.5582L82.9815 87.8097H82.8537L81.1151 89.4205ZM79.7088 93V79.9091H81.2173V93H79.7088ZM85.9474 93L82.1122 88.142L83.1861 87.0938L87.8651 93H85.9474Z" fill="#D1D5DB"/>
</g>
<defs>
<clipPath id="clip0_119_300">
<rect width="89" height="100" fill="white"/>
</clipPath>
</defs>
</svg>
