<svg width="106" height="100" viewBox="0 0 106 100" fill="none" xmlns="http://www.w3.org/2000/svg">
<g clip-path="url(#clip0_119_275)">
<g clip-path="url(#clip1_119_275)">
<mask id="mask0_119_275" style="mask-type:luminance" maskUnits="userSpaceOnUse" x="0" y="0" width="106" height="63">
<path d="M0.63623 0H105.364V62.8364H0.63623V0Z" fill="white"/>
</mask>
<g mask="url(#mask0_119_275)">
<path fill-rule="evenodd" clip-rule="evenodd" d="M52.9999 0C39.0362 0 30.309 6.98182 26.818 20.9455C32.0544 13.9636 38.1635 11.3455 45.1453 13.0909C49.1288 14.0858 51.9759 16.9775 55.1274 20.1755C60.261 25.3867 66.2033 31.4182 79.1817 31.4182C93.1453 31.4182 101.873 24.4364 105.364 10.4727C100.127 17.4545 94.018 20.0727 87.0362 18.3273C83.0527 17.3324 80.2057 14.4407 77.0542 11.2427C71.9206 6.03151 65.9783 0 52.9999 0ZM26.818 31.4182C12.8544 31.4182 4.12714 38.4 0.63623 52.3636C5.87259 45.3818 11.9817 42.7636 18.9635 44.5091C22.947 45.5059 25.794 48.3956 28.9456 51.5937C34.0791 56.8048 40.0214 62.8364 52.9999 62.8364C66.9635 62.8364 75.6908 55.8545 79.1817 41.8909C73.9453 48.8727 67.8362 51.4909 60.8544 49.7455C56.8709 48.7505 54.0239 45.8589 50.8723 42.6608C45.7388 37.4497 39.7965 31.4182 26.818 31.4182Z" fill="#38BDF8"/>
</g>
</g>
<path d="M4.36932 81.3153V79.9091H14.1875V81.3153H10.071V93H8.4858V81.3153H4.36932ZM17.9828 93.2301C17.3606 93.2301 16.796 93.1129 16.2889 92.8786C15.7818 92.6399 15.3791 92.2969 15.0808 91.8494C14.7825 91.3977 14.6333 90.8523 14.6333 90.2131C14.6333 89.6506 14.7441 89.1946 14.9657 88.8452C15.1873 88.4915 15.4835 88.2145 15.8542 88.0142C16.225 87.8139 16.6341 87.6648 17.0815 87.5668C17.5332 87.4645 17.987 87.3835 18.443 87.3239C19.0396 87.2472 19.5233 87.1896 19.894 87.1513C20.269 87.1087 20.5417 87.0384 20.7122 86.9403C20.8869 86.8423 20.9743 86.6719 20.9743 86.429V86.3778C20.9743 85.7472 20.8017 85.2571 20.4565 84.9077C20.1156 84.5582 19.5978 84.3835 18.9032 84.3835C18.1831 84.3835 17.6184 84.5412 17.2093 84.8565C16.8002 85.1719 16.5126 85.5085 16.3464 85.8665L14.9146 85.3551C15.1703 84.7585 15.5112 84.294 15.9373 83.9616C16.3677 83.625 16.8365 83.3906 17.3436 83.2585C17.8549 83.1222 18.3578 83.054 18.8521 83.054C19.1674 83.054 19.5297 83.0923 19.9387 83.169C20.3521 83.2415 20.7505 83.3928 21.1341 83.6229C21.5218 83.853 21.8436 84.2003 22.0993 84.6648C22.3549 85.1293 22.4828 85.7514 22.4828 86.5312V93H20.9743V91.6705H20.8976C20.7953 91.8835 20.6248 92.1115 20.3862 92.3544C20.1475 92.5973 19.8301 92.804 19.4338 92.9744C19.0375 93.1449 18.5538 93.2301 17.9828 93.2301ZM18.2129 91.875C18.8095 91.875 19.3123 91.7578 19.7214 91.5234C20.1348 91.2891 20.4458 90.9865 20.6547 90.6158C20.8677 90.245 20.9743 89.8551 20.9743 89.446V88.0653C20.9103 88.142 20.7697 88.2124 20.5524 88.2763C20.3393 88.3359 20.0922 88.3892 19.8109 88.4361C19.5339 88.4787 19.2633 88.517 18.9991 88.5511C18.7392 88.581 18.5282 88.6065 18.3663 88.6278C17.9743 88.679 17.6078 88.7621 17.2669 88.8771C16.9302 88.9879 16.6575 89.1562 16.4487 89.3821C16.2441 89.6037 16.1419 89.9062 16.1419 90.2898C16.1419 90.8139 16.3358 91.2102 16.7235 91.4787C17.1156 91.7429 17.612 91.875 18.2129 91.875ZM25.2362 93V83.1818H26.7447V93H25.2362ZM26.0032 81.5455C25.7092 81.5455 25.4556 81.4453 25.2425 81.245C25.0337 81.0447 24.9293 80.804 24.9293 80.5227C24.9293 80.2415 25.0337 80.0007 25.2425 79.8004C25.4556 79.6001 25.7092 79.5 26.0032 79.5C26.2972 79.5 26.5487 79.6001 26.7575 79.8004C26.9705 80.0007 27.0771 80.2415 27.0771 80.5227C27.0771 80.804 26.9705 81.0447 26.7575 81.245C26.5487 81.4453 26.2972 81.5455 26.0032 81.5455ZM31.0162 79.9091V93H29.5076V79.9091H31.0162ZM36.0036 93L33.0121 83.1818H34.5973L36.7195 90.6989H36.8217L38.9183 83.1818H40.5291L42.6001 90.6733H42.7024L44.8246 83.1818H46.4098L43.4183 93H41.9354L39.7876 85.4574H39.6342L37.4865 93H36.0036ZM48.4041 93V83.1818H49.9126V93H48.4041ZM49.1712 81.5455C48.8771 81.5455 48.6236 81.4453 48.4105 81.245C48.2017 81.0447 48.0973 80.804 48.0973 80.5227C48.0973 80.2415 48.2017 80.0007 48.4105 79.8004C48.6236 79.6001 48.8771 79.5 49.1712 79.5C49.4652 79.5 49.7166 79.6001 49.9254 79.8004C50.1385 80.0007 50.245 80.2415 50.245 80.5227C50.245 80.804 50.1385 81.0447 49.9254 81.245C49.7166 81.4453 49.4652 81.5455 49.1712 81.5455ZM54.1841 87.0938V93H52.6756V83.1818H54.133V84.7159H54.2608C54.4909 84.2173 54.8404 83.8168 55.3091 83.5142C55.7779 83.2074 56.383 83.054 57.1245 83.054C57.7892 83.054 58.3709 83.1903 58.8695 83.4631C59.3681 83.7315 59.7559 84.1406 60.0328 84.6903C60.3098 85.2358 60.4483 85.9261 60.4483 86.7614V93H58.9398V86.8636C58.9398 86.0923 58.7395 85.4915 58.339 85.0611C57.9384 84.6264 57.3887 84.4091 56.6898 84.4091C56.2083 84.4091 55.7779 84.5135 55.3986 84.7223C55.0236 84.9311 54.7275 85.2358 54.5101 85.6364C54.2928 86.0369 54.1841 86.5227 54.1841 87.0938ZM66.9123 93.2045C66.0941 93.2045 65.3718 92.9979 64.7454 92.5845C64.119 92.1669 63.6289 91.5788 63.2752 90.8203C62.9215 90.0575 62.7447 89.1562 62.7447 88.1165C62.7447 87.0852 62.9215 86.1903 63.2752 85.4318C63.6289 84.6733 64.1211 84.0874 64.7518 83.674C65.3825 83.2607 66.1112 83.054 66.9379 83.054C67.5771 83.054 68.082 83.1605 68.4528 83.3736C68.8278 83.5824 69.1133 83.821 69.3093 84.0895C69.5096 84.3537 69.6651 84.571 69.7759 84.7415H69.9038V79.9091H71.4123V93H69.9549V91.4915H69.7759C69.6651 91.6705 69.5075 91.8963 69.3029 92.169C69.0984 92.4375 68.8065 92.6783 68.4272 92.8913C68.0479 93.1001 67.543 93.2045 66.9123 93.2045ZM67.1168 91.8494C67.7219 91.8494 68.2333 91.6918 68.6509 91.3764C69.0685 91.0568 69.386 90.6158 69.6033 90.0533C69.8207 89.4865 69.9293 88.8324 69.9293 88.0909C69.9293 87.358 69.8228 86.7166 69.6097 86.1669C69.3967 85.6129 69.0813 85.1825 68.6637 84.8757C68.2461 84.5646 67.7305 84.4091 67.1168 84.4091C66.4776 84.4091 65.945 84.5732 65.5188 84.9013C65.0969 85.2251 64.7795 85.6662 64.5664 86.2244C64.3576 86.7784 64.2532 87.4006 64.2532 88.0909C64.2532 88.7898 64.3597 89.4247 64.5728 89.9957C64.7901 90.5625 65.1097 91.0142 65.5316 91.3509C65.9577 91.6832 66.4862 91.8494 67.1168 91.8494ZM78.3732 93.2045C77.4528 93.2045 76.6602 92.9872 75.9954 92.5526C75.3306 92.1179 74.8192 91.5192 74.4613 90.7564C74.1033 89.9936 73.9244 89.1222 73.9244 88.142C73.9244 87.1449 74.1076 86.2649 74.4741 85.5021C74.8448 84.7351 75.3604 84.1364 76.021 83.706C76.6857 83.2713 77.4613 83.054 78.3477 83.054C79.038 83.054 79.6602 83.1818 80.2141 83.4375C80.7681 83.6932 81.2219 84.0511 81.5756 84.5114C81.9293 84.9716 82.1488 85.5085 82.234 86.1222H80.7255C80.6104 85.6747 80.3548 85.2784 79.9585 84.9332C79.5664 84.5838 79.038 84.4091 78.3732 84.4091C77.7852 84.4091 77.2695 84.5625 76.8263 84.8693C76.3874 85.1719 76.0444 85.6001 75.7972 86.1541C75.5543 86.7038 75.4329 87.3494 75.4329 88.0909C75.4329 88.8494 75.5522 89.5099 75.7908 90.0724C76.0337 90.6349 76.3746 91.0717 76.8136 91.3828C77.2567 91.6939 77.7766 91.8494 78.3732 91.8494C78.7653 91.8494 79.1211 91.7812 79.4407 91.6449C79.7603 91.5085 80.0309 91.3125 80.2525 91.0568C80.4741 90.8011 80.6317 90.4943 80.7255 90.1364H82.234C82.1488 90.7159 81.9379 91.2379 81.6012 91.7024C81.2688 92.1626 80.8278 92.5291 80.2781 92.8018C79.7326 93.0703 79.0977 93.2045 78.3732 93.2045ZM91.3938 85.3807L90.0387 85.7642C89.9535 85.5384 89.8278 85.3189 89.6616 85.1058C89.4996 84.8885 89.2781 84.7095 88.9968 84.5689C88.7156 84.4283 88.3555 84.358 87.9165 84.358C87.3157 84.358 86.815 84.4964 86.4144 84.7734C86.0181 85.0462 85.82 85.3935 85.82 85.8153C85.82 86.1903 85.9563 86.4865 86.229 86.7038C86.5018 86.9212 86.9279 87.1023 87.5075 87.2472L88.9648 87.6051C89.8427 87.8182 90.4968 88.1442 90.9272 88.5831C91.3576 89.0178 91.5728 89.5781 91.5728 90.2642C91.5728 90.8267 91.4109 91.3295 91.087 91.7727C90.7674 92.2159 90.32 92.5653 89.7447 92.821C89.1694 93.0767 88.5004 93.2045 87.7376 93.2045C86.7362 93.2045 85.9073 92.9872 85.2511 92.5526C84.5948 92.1179 84.1793 91.483 84.0046 90.6477L85.4364 90.2898C85.5728 90.8182 85.8306 91.2145 86.2099 91.4787C86.5934 91.7429 87.0941 91.875 87.712 91.875C88.4151 91.875 88.9734 91.7259 89.3867 91.4276C89.8043 91.125 90.0131 90.7628 90.0131 90.3409C90.0131 90 89.8938 89.7145 89.6552 89.4844C89.4165 89.25 89.0501 89.0753 88.5558 88.9602L86.9194 88.5767C86.0202 88.3636 85.3597 88.0334 84.9379 87.5859C84.5202 87.1342 84.3114 86.5696 84.3114 85.892C84.3114 85.3381 84.467 84.848 84.7781 84.4219C85.0934 83.9957 85.5217 83.6612 86.0629 83.4183C86.6083 83.1754 87.2262 83.054 87.9165 83.054C88.8881 83.054 89.6509 83.267 90.2049 83.6932C90.7631 84.1193 91.1594 84.6818 91.3938 85.3807ZM100.798 85.3807L99.443 85.7642C99.3578 85.5384 99.2321 85.3189 99.0659 85.1058C98.9039 84.8885 98.6824 84.7095 98.4011 84.5689C98.1199 84.4283 97.7598 84.358 97.3208 84.358C96.72 84.358 96.2193 84.4964 95.8187 84.7734C95.4224 85.0462 95.2243 85.3935 95.2243 85.8153C95.2243 86.1903 95.3606 86.4865 95.6333 86.7038C95.9061 86.9212 96.3322 87.1023 96.9118 87.2472L98.3691 87.6051C99.247 87.8182 99.9011 88.1442 100.331 88.5831C100.762 89.0178 100.977 89.5781 100.977 90.2642C100.977 90.8267 100.815 91.3295 100.491 91.7727C100.172 92.2159 99.7243 92.5653 99.149 92.821C98.5737 93.0767 97.9047 93.2045 97.1419 93.2045C96.1404 93.2045 95.3116 92.9872 94.6554 92.5526C93.9991 92.1179 93.5836 91.483 93.4089 90.6477L94.8407 90.2898C94.9771 90.8182 95.2349 91.2145 95.6142 91.4787C95.9977 91.7429 96.4984 91.875 97.1163 91.875C97.8194 91.875 98.3777 91.7259 98.791 91.4276C99.2086 91.125 99.4174 90.7628 99.4174 90.3409C99.4174 90 99.2981 89.7145 99.0595 89.4844C98.8208 89.25 98.4544 89.0753 97.9601 88.9602L96.3237 88.5767C95.4245 88.3636 94.764 88.0334 94.3422 87.5859C93.9245 87.1342 93.7157 86.5696 93.7157 85.892C93.7157 85.3381 93.8713 84.848 94.1824 84.4219C94.4977 83.9957 94.926 83.6612 95.4672 83.4183C96.0126 83.1754 96.6305 83.054 97.3208 83.054C98.2924 83.054 99.0552 83.267 99.6092 83.6932C100.167 84.1193 100.564 84.6818 100.798 85.3807Z" fill="#D1D5DB"/>
</g>
<defs>
<clipPath id="clip0_119_275">
<rect width="104.727" height="100" fill="white" transform="translate(0.63623)"/>
</clipPath>
<clipPath id="clip1_119_275">
<rect width="104.727" height="64" fill="white" transform="translate(0.63623)"/>
</clipPath>
</defs>
</svg>
