<svg width="91" height="100" viewBox="0 0 91 100" fill="none" xmlns="http://www.w3.org/2000/svg">
<g clip-path="url(#clip0_119_223)">
<g clip-path="url(#clip1_119_223)">
<path d="M74.353 0H16.353C14.6962 0 13.353 1.34315 13.353 3V61C13.353 62.6569 14.6962 64 16.353 64H74.353C76.0099 64 77.353 62.6569 77.353 61V3C77.353 1.34315 76.0099 0 74.353 0Z" fill="#3178C6"/>
<path fill-rule="evenodd" clip-rule="evenodd" d="M50.4841 49.734V56.747C51.6203 57.331 52.964 57.7695 54.5154 58.0615C56.0667 58.354 57.7018 58.5 59.4206 58.5C61.0958 58.5 62.6871 58.3395 64.1945 58.018C65.7025 57.6965 67.024 57.167 68.1605 56.429C69.2965 55.691 70.196 54.727 70.859 53.536C71.5215 52.3455 71.853 50.8735 71.853 49.1203C71.853 47.8493 71.6635 46.7353 71.285 45.7783C70.906 44.8214 70.36 43.9704 69.646 43.2252C68.9325 42.4801 68.0765 41.8117 67.079 41.22C66.081 40.6283 64.956 40.0694 63.703 39.5435C62.7854 39.1636 61.9624 38.7947 61.2341 38.4368C60.5058 38.0788 59.8867 37.7136 59.3769 37.341C58.8671 36.9684 58.4738 36.574 58.197 36.1576C57.9203 35.7413 57.7819 35.27 57.7819 34.7441C57.7819 34.2619 57.9057 33.8273 58.1533 33.4402C58.401 33.053 58.7506 32.7206 59.2021 32.443C59.6537 32.1655 60.2072 31.95 60.8627 31.7966C61.5182 31.6431 62.2465 31.5664 63.0476 31.5664C63.6305 31.5664 64.2455 31.6103 64.894 31.6979C65.542 31.7856 66.194 31.9207 66.8495 32.1034C67.505 32.286 68.142 32.5161 68.7615 32.7937C69.3805 33.0713 69.952 33.3927 70.4765 33.7579V27.2054C69.413 26.7963 68.2515 26.4931 66.9915 26.2959C65.7315 26.0986 64.286 26 62.6543 26C60.9938 26 59.4206 26.1789 57.9348 26.5369C56.4491 26.8948 55.1417 27.4537 54.0128 28.2134C52.8839 28.9731 51.9917 29.941 51.3363 31.1171C50.6808 32.2932 50.353 33.6995 50.353 35.3358C50.353 37.4251 50.9539 39.2074 52.1556 40.683C53.3574 42.1587 55.1818 43.4079 57.6289 44.4305C58.5903 44.825 59.4862 45.2122 60.3164 45.592C61.1467 45.9719 61.8641 46.3664 62.4686 46.7755C63.0731 47.1846 63.55 47.6302 63.8995 48.1123C64.2495 48.5944 64.424 49.1423 64.424 49.7559C64.424 50.209 64.315 50.629 64.0965 51.016C63.878 51.403 63.5465 51.739 63.1023 52.024C62.658 52.309 62.1045 52.532 61.4417 52.6925C60.7789 52.853 60.0033 52.9335 59.1147 52.9335C57.5998 52.9335 56.0995 52.667 54.6137 52.1335C53.1279 51.6005 51.7514 50.8005 50.4841 49.734ZM38.7043 32.2772H47.853V26.5H22.353V32.2772H31.457V58H38.7043V32.2772Z" fill="white"/>
</g>
<path d="M1.22235 81.3153V79.9091H11.0405V81.3153H6.92405V93H5.33882V81.3153H1.22235ZM13.1291 96.6818C12.8734 96.6818 12.6455 96.6605 12.4452 96.6179C12.2449 96.5795 12.1064 96.5412 12.0297 96.5028L12.4132 95.1733C12.7797 95.267 13.1036 95.3011 13.3848 95.2756C13.6661 95.25 13.9153 95.1243 14.1327 94.8984C14.3543 94.6768 14.5567 94.3168 14.7399 93.8182L15.0212 93.0511L11.3905 83.1818H13.0269L15.7371 91.0057H15.8394L18.5496 83.1818H20.1859L16.0183 94.4318C15.8308 94.9389 15.5986 95.3587 15.3216 95.6911C15.0446 96.0277 14.7229 96.277 14.3564 96.4389C13.9942 96.6009 13.5851 96.6818 13.1291 96.6818ZM22.1771 96.6818V83.1818H23.6345V84.7415H23.8134C23.9242 84.571 24.0776 84.3537 24.2737 84.0895C24.4739 83.821 24.7595 83.5824 25.1302 83.3736C25.5052 83.1605 26.0123 83.054 26.6515 83.054C27.4782 83.054 28.2069 83.2607 28.8376 83.674C29.4683 84.0874 29.9604 84.6733 30.3141 85.4318C30.6678 86.1903 30.8447 87.0852 30.8447 88.1165C30.8447 89.1562 30.6678 90.0575 30.3141 90.8203C29.9604 91.5788 29.4704 92.1669 28.844 92.5845C28.2176 92.9979 27.4953 93.2045 26.6771 93.2045C26.0464 93.2045 25.5414 93.1001 25.1622 92.8913C24.7829 92.6783 24.491 92.4375 24.2864 92.169C24.0819 91.8963 23.9242 91.6705 23.8134 91.4915H23.6856V96.6818H22.1771ZM23.66 88.0909C23.66 88.8324 23.7687 89.4865 23.986 90.0533C24.2033 90.6158 24.5208 91.0568 24.9384 91.3764C25.356 91.6918 25.8674 91.8494 26.4725 91.8494C27.1032 91.8494 27.6295 91.6832 28.0514 91.3509C28.4775 91.0142 28.7971 90.5625 29.0102 89.9957C29.2275 89.4247 29.3362 88.7898 29.3362 88.0909C29.3362 87.4006 29.2296 86.7784 29.0166 86.2244C28.8078 85.6662 28.4903 85.2251 28.0641 84.9013C27.6423 84.5732 27.1117 84.4091 26.4725 84.4091C25.8589 84.4091 25.3433 84.5646 24.9256 84.8757C24.508 85.1825 24.1927 85.6129 23.9796 86.1669C23.7666 86.7166 23.66 87.358 23.66 88.0909ZM37.2623 93.2045C36.3163 93.2045 35.5002 92.9957 34.8141 92.5781C34.1323 92.1562 33.606 91.5682 33.2353 90.8139C32.8688 90.0554 32.6856 89.1733 32.6856 88.1676C32.6856 87.1619 32.8688 86.2756 33.2353 85.5085C33.606 84.7372 34.1217 84.1364 34.7822 83.706C35.447 83.2713 36.2225 83.054 37.1089 83.054C37.6203 83.054 38.1252 83.1392 38.6238 83.3097C39.1224 83.4801 39.5762 83.7571 39.9853 84.1406C40.3944 84.5199 40.7204 85.0227 40.9633 85.6491C41.2062 86.2756 41.3276 87.0469 41.3276 87.9631V88.6023H33.7595V87.2983H39.7935C39.7935 86.7443 39.6828 86.25 39.4612 85.8153C39.2438 85.3807 38.9328 85.0376 38.5279 84.7862C38.1274 84.5348 37.6543 84.4091 37.1089 84.4091C36.508 84.4091 35.9881 84.5582 35.5492 84.8565C35.1146 85.1506 34.7801 85.5341 34.5457 86.0071C34.3113 86.4801 34.1941 86.9872 34.1941 87.5284V88.3977C34.1941 89.1392 34.322 89.7678 34.5776 90.2834C34.8376 90.7947 35.1977 91.1847 35.6579 91.4531C36.1181 91.7173 36.6529 91.8494 37.2623 91.8494C37.6586 91.8494 38.0166 91.794 38.3362 91.6832C38.66 91.5682 38.9391 91.3977 39.1735 91.1719C39.4079 90.9418 39.589 90.6562 39.7168 90.3153L41.1742 90.7244C41.0208 91.2188 40.763 91.6534 40.4008 92.0284C40.0386 92.3991 39.5911 92.6889 39.0585 92.8977C38.5258 93.1023 37.9271 93.2045 37.2623 93.2045ZM50.5769 85.3807L49.2218 85.7642C49.1366 85.5384 49.0109 85.3189 48.8447 85.1058C48.6828 84.8885 48.4612 84.7095 48.1799 84.5689C47.8987 84.4283 47.5386 84.358 47.0997 84.358C46.4988 84.358 45.9981 84.4964 45.5975 84.7734C45.2012 85.0462 45.0031 85.3935 45.0031 85.8153C45.0031 86.1903 45.1394 86.4865 45.4122 86.7038C45.6849 86.9212 46.111 87.1023 46.6906 87.2472L48.1479 87.6051C49.0258 87.8182 49.6799 88.1442 50.1103 88.5831C50.5407 89.0178 50.7559 89.5781 50.7559 90.2642C50.7559 90.8267 50.594 91.3295 50.2701 91.7727C49.9505 92.2159 49.5031 92.5653 48.9278 92.821C48.3525 93.0767 47.6835 93.2045 46.9207 93.2045C45.9193 93.2045 45.0904 92.9872 44.4342 92.5526C43.7779 92.1179 43.3624 91.483 43.1877 90.6477L44.6195 90.2898C44.7559 90.8182 45.0137 91.2145 45.393 91.4787C45.7765 91.7429 46.2772 91.875 46.8951 91.875C47.5982 91.875 48.1565 91.7259 48.5698 91.4276C48.9874 91.125 49.1962 90.7628 49.1962 90.3409C49.1962 90 49.0769 89.7145 48.8383 89.4844C48.5997 89.25 48.2332 89.0753 47.7389 88.9602L46.1025 88.5767C45.2033 88.3636 44.5428 88.0334 44.121 87.5859C43.7033 87.1342 43.4945 86.5696 43.4945 85.892C43.4945 85.3381 43.6501 84.848 43.9612 84.4219C44.2765 83.9957 44.7048 83.6612 45.246 83.4183C45.7914 83.1754 46.4093 83.054 47.0997 83.054C48.0712 83.054 48.834 83.267 49.388 83.6932C49.9462 84.1193 50.3426 84.6818 50.5769 85.3807ZM57.0153 93.2045C56.0949 93.2045 55.3022 92.9872 54.6375 92.5526C53.9727 92.1179 53.4613 91.5192 53.1034 90.7564C52.7454 89.9936 52.5665 89.1222 52.5665 88.142C52.5665 87.1449 52.7497 86.2649 53.1162 85.5021C53.4869 84.7351 54.0025 84.1364 54.663 83.706C55.3278 83.2713 56.1034 83.054 56.9897 83.054C57.6801 83.054 58.3022 83.1818 58.8562 83.4375C59.4102 83.6932 59.864 84.0511 60.2177 84.5114C60.5714 84.9716 60.7909 85.5085 60.8761 86.1222H59.3676C59.2525 85.6747 58.9968 85.2784 58.6005 84.9332C58.2085 84.5838 57.6801 84.4091 57.0153 84.4091C56.4272 84.4091 55.9116 84.5625 55.4684 84.8693C55.0295 85.1719 54.6865 85.6001 54.4393 86.1541C54.1964 86.7038 54.075 87.3494 54.075 88.0909C54.075 88.8494 54.1943 89.5099 54.4329 90.0724C54.6758 90.6349 55.0167 91.0717 55.4557 91.3828C55.8988 91.6939 56.4187 91.8494 57.0153 91.8494C57.4074 91.8494 57.7632 91.7812 58.0828 91.6449C58.4024 91.5085 58.673 91.3125 58.8946 91.0568C59.1162 90.8011 59.2738 90.4943 59.3676 90.1364H60.8761C60.7909 90.7159 60.5799 91.2379 60.2433 91.7024C59.9109 92.1626 59.4699 92.5291 58.9201 92.8018C58.3747 93.0703 57.7397 93.2045 57.0153 93.2045ZM63.0814 93V83.1818H64.5388V84.6648H64.641C64.82 84.179 65.1439 83.7848 65.6126 83.4822C66.0814 83.1797 66.6098 83.0284 67.1978 83.0284C67.3086 83.0284 67.4471 83.0305 67.6133 83.0348C67.7795 83.0391 67.9052 83.0455 67.9905 83.054V84.5881C67.9393 84.5753 67.8221 84.5561 67.6389 84.5305C67.4599 84.5007 67.2703 84.4858 67.07 84.4858C66.5927 84.4858 66.1666 84.5859 65.7916 84.7862C65.4209 84.9822 65.1268 85.255 64.9095 85.6044C64.6964 85.9496 64.5899 86.3437 64.5899 86.7869V93H63.0814ZM69.7786 93V83.1818H71.2872V93H69.7786ZM70.5457 81.5455C70.2516 81.5455 69.9981 81.4453 69.785 81.245C69.5762 81.0447 69.4718 80.804 69.4718 80.5227C69.4718 80.2415 69.5762 80.0007 69.785 79.8004C69.9981 79.6001 70.2516 79.5 70.5457 79.5C70.8397 79.5 71.0911 79.6001 71.2999 79.8004C71.513 80.0007 71.6195 80.2415 71.6195 80.5227C71.6195 80.804 71.513 81.0447 71.2999 81.245C71.0911 81.4453 70.8397 81.5455 70.5457 81.5455ZM74.0501 96.6818V83.1818H75.5075V84.7415H75.6865C75.7973 84.571 75.9507 84.3537 76.1467 84.0895C76.347 83.821 76.6325 83.5824 77.0032 83.3736C77.3782 83.1605 77.8853 83.054 78.5245 83.054C79.3513 83.054 80.0799 83.2607 80.7106 83.674C81.3413 84.0874 81.8335 84.6733 82.1872 85.4318C82.5409 86.1903 82.7177 87.0852 82.7177 88.1165C82.7177 89.1562 82.5409 90.0575 82.1872 90.8203C81.8335 91.5788 81.3434 92.1669 80.717 92.5845C80.0906 92.9979 79.3683 93.2045 78.5501 93.2045C77.9194 93.2045 77.4145 93.1001 77.0352 92.8913C76.6559 92.6783 76.364 92.4375 76.1595 92.169C75.9549 91.8963 75.7973 91.6705 75.6865 91.4915H75.5586V96.6818H74.0501ZM75.5331 88.0909C75.5331 88.8324 75.6417 89.4865 75.8591 90.0533C76.0764 90.6158 76.3939 91.0568 76.8115 91.3764C77.2291 91.6918 77.7405 91.8494 78.3456 91.8494C78.9763 91.8494 79.5025 91.6832 79.9244 91.3509C80.3505 91.0142 80.6701 90.5625 80.8832 89.9957C81.1005 89.4247 81.2092 88.7898 81.2092 88.0909C81.2092 87.4006 81.1027 86.7784 80.8896 86.2244C80.6808 85.6662 80.3633 85.2251 79.9372 84.9013C79.5153 84.5732 78.9848 84.4091 78.3456 84.4091C77.7319 84.4091 77.2163 84.5646 76.7987 84.8757C76.3811 85.1825 76.0657 85.6129 75.8527 86.1669C75.6396 86.7166 75.5331 87.358 75.5331 88.0909ZM89.2888 83.1818V84.4602H84.2007V83.1818H89.2888ZM85.6836 80.8295H87.1922V90.1875C87.1922 90.6136 87.254 90.9332 87.3775 91.1463C87.5054 91.3551 87.6673 91.4957 87.8633 91.5682C88.0636 91.6364 88.2745 91.6705 88.4961 91.6705C88.6623 91.6705 88.7987 91.6619 88.9052 91.6449C89.0118 91.6236 89.097 91.6065 89.1609 91.5938L89.4677 92.9489C89.3655 92.9872 89.2227 93.0256 89.0395 93.0639C88.8562 93.1065 88.624 93.1278 88.3427 93.1278C87.9166 93.1278 87.499 93.0362 87.0899 92.853C86.6851 92.6697 86.3484 92.3906 86.0799 92.0156C85.8157 91.6406 85.6836 91.1676 85.6836 90.5966V80.8295Z" fill="#D1D5DB"/>
</g>
<defs>
<clipPath id="clip0_119_223">
<rect width="90" height="100" fill="white" transform="translate(0.353027)"/>
</clipPath>
<clipPath id="clip1_119_223">
<rect width="64" height="64" fill="white" transform="translate(13.353)"/>
</clipPath>
</defs>
</svg>
