<?xml version="1.0" standalone="no"?>
<!DOCTYPE svg PUBLIC "-//W3C//DTD SVG 20010904//EN"
 "http://www.w3.org/TR/2001/REC-SVG-20010904/DTD/svg10.dtd">
<svg version="1.0" xmlns="http://www.w3.org/2000/svg"
 width="1279.000000pt" height="1343.000000pt" viewBox="0 0 1279.000000 1343.000000"
 preserveAspectRatio="xMidYMid meet">
<metadata>
Created by potrace 1.16, written by Peter Selinger 2001-2019
</metadata>
<g transform="translate(0.000000,1343.000000) scale(0.100000,-0.100000)"
fill="#ffffff" stroke="none">
<path d="M581 13344 c-28 -35 -26 -69 4 -99 48 -49 125 -16 125 53 0 69 -87
99 -129 46z"/>
<path d="M850 13350 c-28 -28 -26 -81 3 -108 31 -29 72 -28 102 3 30 30 32 64
4 99 -26 33 -79 36 -109 6z"/>
<path d="M1120 13350 c-12 -12 -20 -33 -20 -55 0 -70 76 -100 125 -50 30 30
32 64 4 99 -26 33 -79 36 -109 6z"/>
<path d="M1389 13351 c-17 -13 -23 -29 -23 -56 0 -66 78 -101 124 -55 29 29
27 94 -2 114 -30 21 -71 20 -99 -3z"/>
<path d="M1651 13344 c-28 -35 -26 -69 4 -99 48 -49 125 -16 125 53 0 69 -87
99 -129 46z"/>
<path d="M1920 13350 c-45 -45 -9 -130 54 -130 36 0 76 41 76 78 0 61 -86 96
-130 52z"/>
<path d="M2190 13350 c-12 -12 -20 -33 -20 -55 0 -70 76 -100 125 -50 30 30
32 64 4 99 -26 33 -79 36 -109 6z"/>
<path d="M2459 13351 c-52 -42 -17 -131 51 -131 44 0 72 29 72 75 0 67 -70 99
-123 56z"/>
<path d="M2721 13344 c-28 -35 -26 -69 4 -99 49 -50 125 -19 125 50 0 72 -86
104 -129 49z"/>
<path d="M2992 13347 c-45 -47 -11 -127 53 -127 37 0 75 37 75 74 0 67 -83
101 -128 53z"/>
<path d="M3260 13350 c-12 -12 -20 -33 -20 -55 0 -70 76 -100 125 -50 30 30
32 64 4 99 -26 33 -79 36 -109 6z"/>
<path d="M3530 13352 c-16 -13 -22 -29 -22 -57 0 -46 28 -75 72 -75 44 0 74
31 74 75 0 65 -73 99 -124 57z"/>
<path d="M3791 13344 c-28 -35 -26 -69 4 -99 49 -50 125 -20 125 50 0 72 -86
104 -129 49z"/>
<path d="M4062 13347 c-46 -49 -12 -127 54 -127 39 0 74 36 74 76 0 65 -84 98
-128 51z"/>
<path d="M4330 13350 c-12 -12 -20 -33 -20 -55 0 -69 76 -100 125 -50 30 30
32 64 4 99 -26 33 -79 36 -109 6z"/>
<path d="M4602 13354 c-29 -20 -31 -85 -2 -114 46 -46 124 -11 124 55 0 64
-68 97 -122 59z"/>
<path d="M4865 13345 c-14 -13 -25 -36 -25 -50 0 -36 42 -75 80 -75 41 0 70
31 70 75 0 70 -76 100 -125 50z"/>
<path d="M5131 13344 c-12 -15 -21 -37 -21 -49 0 -12 9 -34 21 -49 42 -54 129
-19 129 52 0 67 -88 98 -129 46z"/>
<path d="M5400 13350 c-28 -28 -26 -81 3 -108 31 -29 72 -28 102 3 30 30 32
64 4 99 -26 33 -79 36 -109 6z"/>
<path d="M5670 13350 c-45 -45 -13 -130 50 -130 38 0 80 39 80 75 0 61 -87 98
-130 55z"/>
<path d="M5933 13344 c-20 -20 -24 -31 -19 -57 18 -94 146 -86 146 8 0 71 -76
100 -127 49z"/>
<path d="M6201 13344 c-28 -35 -26 -69 4 -99 48 -49 125 -16 125 53 0 69 -87
99 -129 46z"/>
<path d="M6470 13350 c-30 -30 -27 -83 6 -109 35 -28 69 -26 99 4 30 30 32 64
4 99 -26 33 -79 36 -109 6z"/>
<path d="M6742 13354 c-29 -20 -31 -85 -2 -114 41 -41 114 -15 126 45 12 66
-66 110 -124 69z"/>
<path d="M7000 13343 c-56 -72 46 -167 110 -103 29 29 27 94 -2 114 -36 25
-83 20 -108 -11z"/>
<path d="M7271 13344 c-28 -35 -26 -69 4 -99 30 -30 64 -32 99 -4 33 26 36 79
6 109 -30 30 -83 27 -109 -6z"/>
<path d="M7540 13350 c-30 -30 -27 -83 6 -109 15 -12 38 -21 51 -21 33 0 73
42 73 78 0 61 -86 96 -130 52z"/>
<path d="M7812 13354 c-29 -20 -31 -85 -2 -114 41 -41 114 -15 126 45 12 66
-66 110 -124 69z"/>
<path d="M8070 13343 c-56 -72 46 -167 110 -103 29 29 27 94 -2 114 -36 25
-83 20 -108 -11z"/>
<path d="M8341 13344 c-28 -35 -26 -69 4 -99 30 -30 64 -32 99 -4 33 26 36 79
6 109 -30 30 -83 27 -109 -6z"/>
<path d="M8610 13350 c-30 -30 -27 -83 6 -109 15 -12 38 -21 51 -21 33 0 73
42 73 78 0 61 -86 96 -130 52z"/>
<path d="M8880 13350 c-12 -12 -20 -33 -20 -55 0 -69 76 -100 125 -50 30 30
32 64 4 99 -26 33 -79 36 -109 6z"/>
<path d="M9145 13350 c-27 -30 -25 -88 4 -111 25 -21 62 -24 91 -9 25 13 41
65 30 95 -18 47 -92 61 -125 25z"/>
<path d="M9411 13344 c-28 -35 -26 -69 4 -99 49 -50 125 -19 125 50 0 72 -86
104 -129 49z"/>
<path d="M9682 13347 c-45 -47 -11 -127 53 -127 37 0 75 37 75 74 0 67 -83
101 -128 53z"/>
<path d="M9950 13350 c-12 -12 -20 -33 -20 -55 0 -69 76 -100 125 -50 30 30
32 64 4 99 -26 33 -79 36 -109 6z"/>
<path d="M10227 13359 c-27 -16 -38 -53 -26 -89 29 -80 143 -60 143 25 0 60
-63 95 -117 64z"/>
<path d="M10481 13344 c-28 -35 -26 -69 4 -99 49 -50 125 -20 125 50 0 72 -86
104 -129 49z"/>
<path d="M10752 13347 c-29 -31 -28 -72 3 -102 30 -30 64 -32 99 -4 33 26 36
79 6 109 -28 28 -81 26 -108 -3z"/>
<path d="M11020 13350 c-28 -28 -26 -81 3 -108 31 -29 72 -28 102 3 30 30 32
64 4 99 -26 33 -79 36 -109 6z"/>
<path d="M11292 13354 c-29 -20 -31 -85 -2 -114 41 -41 114 -15 126 45 12 66
-66 110 -124 69z"/>
<path d="M11551 13344 c-28 -35 -26 -69 4 -99 49 -50 125 -20 125 50 0 72 -86
104 -129 49z"/>
<path d="M11822 13347 c-29 -31 -28 -72 3 -102 30 -30 64 -32 99 -4 33 26 36
79 6 109 -28 28 -81 26 -108 -3z"/>
<path d="M12090 13350 c-30 -30 -27 -83 6 -109 35 -28 69 -26 99 4 30 30 32
64 4 99 -26 33 -79 36 -109 6z"/>
<path d="M586 13084 c-54 -53 -19 -128 58 -126 59 2 88 80 46 122 -24 24 -82
27 -104 4z"/>
<path d="M850 13080 c-42 -42 -13 -120 46 -122 43 -1 71 17 79 51 6 30 -7 69
-29 83 -22 15 -76 8 -96 -12z"/>
<path d="M1117 13082 c-24 -26 -22 -85 3 -107 27 -25 76 -23 102 3 26 26 28
75 3 102 -24 26 -85 27 -108 2z"/>
<path d="M1385 13080 c-25 -27 -23 -76 3 -102 26 -26 75 -28 102 -3 26 24 27
85 2 108 -26 24 -85 22 -107 -3z"/>
<path d="M1651 13074 c-46 -59 -3 -126 74 -115 28 3 55 38 55 72 0 66 -88 95
-129 43z"/>
<path d="M1920 13080 c-42 -42 -13 -120 46 -122 77 -2 112 73 58 127 -22 22
-80 19 -104 -5z"/>
<path d="M2186 13078 c-21 -30 -20 -81 2 -101 36 -32 102 -22 120 18 17 36 15
48 -9 79 -27 35 -90 37 -113 4z"/>
<path d="M2456 13081 c-25 -27 -24 -78 2 -103 26 -26 75 -28 102 -3 26 24 27
85 2 108 -25 23 -85 22 -106 -2z"/>
<path d="M2721 13074 c-24 -31 -26 -43 -9 -79 12 -26 47 -41 83 -36 28 3 55
38 55 72 0 66 -88 95 -129 43z"/>
<path d="M2990 13080 c-38 -38 -15 -116 35 -121 59 -5 95 22 95 71 0 41 -31
70 -75 70 -22 0 -43 -8 -55 -20z"/>
<path d="M3260 13080 c-25 -25 -26 -81 -2 -103 36 -32 102 -22 120 18 17 36
15 48 -9 79 -26 33 -79 36 -109 6z"/>
<path d="M3527 13082 c-24 -26 -22 -85 3 -107 48 -43 120 -10 120 55 0 23 -7
43 -18 53 -25 23 -85 22 -105 -1z"/>
<path d="M3791 13074 c-24 -31 -26 -43 -10 -78 32 -68 139 -45 139 31 0 70
-86 101 -129 47z"/>
<path d="M4060 13078 c-44 -48 -11 -122 55 -122 45 0 75 30 75 75 0 63 -86 94
-130 47z"/>
<path d="M4331 13081 c-23 -23 -27 -61 -10 -92 28 -53 121 -39 134 21 15 69
-75 120 -124 71z"/>
<path d="M4597 13082 c-24 -26 -22 -85 3 -107 48 -43 120 -10 120 55 0 23 -7
43 -18 53 -25 23 -85 22 -105 -1z"/>
<path d="M4861 13074 c-24 -31 -26 -43 -10 -78 32 -68 139 -45 139 31 0 70
-86 101 -129 47z"/>
<path d="M5144 13092 c-16 -10 -34 -48 -34 -70 0 -60 93 -90 131 -43 41 51 10
121 -53 121 -18 0 -38 -4 -44 -8z"/>
<path d="M5401 13081 c-23 -23 -27 -61 -10 -92 28 -53 121 -39 134 21 15 69
-75 120 -124 71z"/>
<path d="M5667 13082 c-22 -25 -22 -85 1 -104 43 -38 104 -26 121 23 11 32 6
54 -17 82 -20 23 -84 23 -105 -1z"/>
<path d="M5938 13083 c-23 -28 -28 -50 -17 -82 11 -32 56 -55 87 -44 53 19 71
84 32 123 -25 25 -81 27 -102 3z"/>
<path d="M6201 13074 c-36 -46 -23 -94 29 -113 55 -19 100 14 100 73 0 63 -89
90 -129 40z"/>
<path d="M6466 13078 c-37 -53 -8 -118 52 -118 43 0 55 6 71 38 14 27 8 63
-15 86 -24 25 -90 21 -108 -6z"/>
<path d="M6737 13082 c-23 -25 -22 -85 1 -105 26 -24 85 -22 107 3 43 48 10
120 -55 120 -23 0 -43 -7 -53 -18z"/>
<path d="M7005 13080 c-43 -48 -10 -120 55 -120 23 0 43 7 53 18 23 25 22 85
-1 105 -26 24 -85 22 -107 -3z"/>
<path d="M7275 13086 c-14 -10 -20 -26 -20 -56 0 -49 22 -70 72 -70 42 0 73
30 73 70 0 59 -76 92 -125 56z"/>
<path d="M7540 13080 c-24 -24 -26 -67 -4 -98 11 -16 25 -22 52 -22 43 0 55 6
71 38 14 27 8 63 -15 86 -22 23 -80 20 -104 -4z"/>
<path d="M7807 13082 c-23 -25 -22 -85 1 -105 26 -24 85 -22 107 3 43 48 10
120 -55 120 -23 0 -43 -7 -53 -18z"/>
<path d="M8075 13080 c-43 -48 -10 -120 55 -120 23 0 43 7 53 18 23 25 22 85
-1 105 -26 24 -85 22 -107 -3z"/>
<path d="M8346 13084 c-23 -23 -29 -59 -15 -86 16 -32 28 -38 71 -38 42 0 68
27 68 70 0 44 -26 70 -70 70 -22 0 -45 -7 -54 -16z"/>
<path d="M8610 13080 c-45 -45 -11 -120 55 -120 44 0 75 29 75 70 0 41 -31 70
-75 70 -22 0 -43 -8 -55 -20z"/>
<path d="M8877 13082 c-23 -25 -22 -85 1 -105 30 -27 87 -22 111 9 12 15 21
34 21 44 0 10 -9 29 -21 44 -25 32 -86 37 -112 8z"/>
<path d="M9147 13082 c-23 -25 -22 -85 1 -105 25 -23 85 -22 105 1 23 25 22
85 -1 105 -25 23 -85 22 -105 -1z"/>
<path d="M9411 13074 c-24 -30 -26 -46 -10 -77 16 -30 28 -37 71 -37 42 0 68
27 68 72 0 65 -89 93 -129 42z"/>
<path d="M9680 13080 c-45 -45 -11 -120 55 -120 44 0 75 29 75 70 0 41 -31 70
-75 70 -22 0 -43 -8 -55 -20z"/>
<path d="M9946 13078 c-20 -29 -20 -67 0 -96 11 -16 25 -22 54 -22 102 0 105
130 2 138 -32 2 -43 -1 -56 -20z"/>
<path d="M10217 13082 c-23 -25 -22 -85 1 -105 25 -23 85 -22 105 1 23 25 22
85 -1 105 -25 23 -85 22 -105 -1z"/>
<path d="M10481 13074 c-24 -30 -26 -46 -10 -77 16 -30 28 -37 70 -37 43 0 69
25 69 66 0 48 -25 74 -70 74 -30 0 -43 -6 -59 -26z"/>
<path d="M10750 13080 c-47 -47 -11 -120 59 -120 30 0 44 6 55 22 38 53 5 118
-59 118 -22 0 -43 -8 -55 -20z"/>
<path d="M11021 13081 c-25 -25 -27 -68 -5 -99 11 -16 25 -22 54 -22 43 0 67
18 76 57 16 62 -79 110 -125 64z"/>
<path d="M11287 13082 c-23 -25 -22 -85 1 -105 25 -23 85 -22 105 1 23 25 22
85 -1 105 -25 23 -85 22 -105 -1z"/>
<path d="M11551 13074 c-12 -15 -21 -34 -21 -44 0 -10 9 -29 21 -44 25 -32 86
-37 112 -8 21 23 22 71 1 100 -23 33 -86 31 -113 -4z"/>
<path d="M11834 13092 c-16 -11 -34 -48 -34 -71 0 -57 102 -86 134 -39 37 52
5 118 -56 118 -18 0 -38 -4 -44 -8z"/>
<path d="M12090 13080 c-24 -24 -26 -67 -4 -98 17 -24 70 -30 104 -12 36 19
34 97 -4 122 -22 15 -76 8 -96 -12z"/>
<path d="M6503 12832 c-51 -8 -70 -83 -30 -120 39 -37 99 -24 118 25 20 54
-27 105 -88 95z"/>
<path d="M6770 12833 c-32 -12 -50 -37 -50 -70 0 -62 65 -94 118 -57 28 19 31
83 5 106 -22 19 -53 28 -73 21z"/>
<path d="M7040 12832 c-53 -16 -70 -97 -28 -126 53 -37 118 -5 118 57 0 47
-47 83 -90 69z"/>
<path d="M7292 12824 c-67 -28 -44 -126 30 -132 29 -2 40 2 57 24 53 67 -7
142 -87 108z"/>
<path d="M7573 12832 c-13 -2 -30 -13 -38 -25 -56 -79 60 -163 118 -85 40 54
-10 122 -80 110z"/>
<path d="M7840 12833 c-32 -12 -50 -37 -50 -70 0 -62 65 -94 118 -57 28 19 31
83 5 106 -22 19 -53 28 -73 21z"/>
<path d="M8110 12833 c-53 -19 -70 -98 -28 -127 53 -37 118 -5 118 57 0 47
-49 85 -90 70z"/>
<path d="M8369 12828 c-25 -8 -49 -44 -49 -72 0 -7 9 -25 21 -40 57 -72 167
15 114 91 -17 24 -51 33 -86 21z"/>
<path d="M8643 12832 c-27 -4 -53 -38 -53 -68 0 -12 10 -33 21 -48 29 -36 83
-33 112 6 40 54 -10 122 -80 110z"/>
<path d="M8913 12832 c-77 -12 -64 -142 15 -142 45 0 72 25 72 69 0 52 -35 82
-87 73z"/>
<path d="M9180 12833 c-51 -19 -68 -85 -30 -123 45 -45 120 -11 120 53 0 47
-49 85 -90 70z"/>
<path d="M586 12814 c-45 -44 -19 -116 44 -122 65 -7 106 72 60 118 -24 24
-82 27 -104 4z"/>
<path d="M846 12808 c-56 -80 59 -164 117 -86 37 49 3 108 -63 108 -29 0 -43
-6 -54 -22z"/>
<path d="M1116 12808 c-51 -72 30 -153 102 -102 28 20 31 83 4 107 -28 25 -87
22 -106 -5z"/>
<path d="M1387 12812 c-25 -28 -22 -87 5 -106 31 -22 74 -20 98 4 26 26 26 81
2 103 -25 23 -85 22 -105 -1z"/>
<path d="M1656 12814 c-46 -45 -19 -116 47 -122 63 -5 99 62 61 116 -18 27
-84 31 -108 6z"/>
<path d="M1920 12810 c-26 -26 -25 -60 1 -94 17 -22 28 -26 57 -24 65 6 92 77
46 122 -22 23 -80 20 -104 -4z"/>
<path d="M2186 12808 c-51 -72 30 -153 102 -102 28 20 31 83 4 107 -28 25 -87
22 -106 -5z"/>
<path d="M2457 12812 c-25 -28 -22 -87 5 -106 31 -22 74 -20 98 4 26 26 26 81
2 103 -25 23 -85 22 -105 -1z"/>
<path d="M2734 12822 c-57 -38 -27 -132 43 -132 62 0 94 65 57 118 -11 16 -25
22 -52 22 -20 0 -42 -4 -48 -8z"/>
<path d="M2990 12810 c-43 -43 -7 -120 55 -120 65 0 98 90 48 128 -26 19 -80
15 -103 -8z"/>
<path d="M3256 12808 c-37 -53 -5 -118 57 -118 42 0 70 29 70 70 0 43 -28 70
-74 70 -28 0 -42 -6 -53 -22z"/>
<path d="M3527 12812 c-23 -25 -21 -78 3 -102 45 -45 120 -11 120 53 0 20 -8
41 -18 50 -25 23 -85 22 -105 -1z"/>
<path d="M3795 12810 c-42 -46 -10 -120 52 -120 62 0 94 65 57 118 -20 29 -83
31 -109 2z"/>
<path d="M4067 12818 c-50 -38 -17 -128 48 -128 62 0 98 77 55 120 -23 23 -77
27 -103 8z"/>
<path d="M4326 12808 c-37 -53 -5 -118 57 -118 61 0 94 66 57 113 -28 36 -91
38 -114 5z"/>
<path d="M4597 12812 c-10 -10 -17 -33 -17 -50 0 -61 66 -93 118 -56 28 20 31
83 4 107 -25 23 -85 22 -105 -1z"/>
<path d="M4867 12812 c-23 -25 -22 -85 1 -105 10 -10 33 -17 50 -17 61 0 93
66 56 118 -20 28 -83 31 -107 4z"/>
<path d="M5136 12814 c-46 -45 -19 -116 46 -122 29 -2 40 2 57 24 26 34 27 68
1 94 -24 24 -82 27 -104 4z"/>
<path d="M5400 12810 c-47 -47 -10 -124 57 -118 66 6 93 76 47 122 -22 23 -80
20 -104 -4z"/>
<path d="M5667 12812 c-10 -10 -17 -33 -17 -50 0 -61 66 -93 118 -56 28 20 31
83 4 107 -25 23 -85 22 -105 -1z"/>
<path d="M5937 12812 c-23 -25 -22 -85 1 -105 10 -10 33 -17 50 -17 61 0 93
66 56 118 -20 28 -83 31 -107 4z"/>
<path d="M6206 12814 c-46 -45 -19 -116 47 -122 65 -6 103 72 57 118 -24 24
-82 27 -104 4z"/>
<path d="M9424 12822 c-57 -38 -27 -132 43 -132 62 0 94 65 57 118 -11 16 -25
22 -52 22 -20 0 -42 -4 -48 -8z"/>
<path d="M9680 12810 c-43 -43 -7 -120 55 -120 65 0 98 90 48 128 -26 19 -80
15 -103 -8z"/>
<path d="M9946 12808 c-35 -49 -5 -118 50 -118 58 0 93 46 73 97 -13 35 -26
43 -71 43 -27 0 -41 -6 -52 -22z"/>
<path d="M10217 12812 c-23 -25 -21 -78 3 -102 45 -45 120 -11 120 53 0 20 -8
41 -18 50 -25 23 -85 22 -105 -1z"/>
<path d="M10485 12810 c-26 -29 -24 -79 4 -102 70 -56 157 26 105 100 -20 29
-83 31 -109 2z"/>
<path d="M10757 12818 c-50 -38 -17 -128 48 -128 62 0 98 77 55 120 -23 23
-77 27 -103 8z"/>
<path d="M11016 12808 c-37 -53 -5 -118 57 -118 53 0 90 57 66 102 -16 32 -28
38 -71 38 -27 0 -41 -6 -52 -22z"/>
<path d="M11287 12812 c-10 -10 -17 -33 -17 -50 0 -61 66 -93 118 -56 28 20
31 83 4 107 -25 23 -85 22 -105 -1z"/>
<path d="M11557 12812 c-10 -10 -17 -35 -17 -55 0 -41 27 -67 72 -67 57 0 87
68 52 118 -20 28 -83 31 -107 4z"/>
<path d="M11827 12818 c-28 -22 -32 -69 -7 -101 58 -74 168 14 114 91 -17 25
-78 31 -107 10z"/>
<path d="M12086 12808 c-56 -80 59 -164 117 -86 37 49 3 108 -63 108 -29 0
-43 -6 -54 -22z"/>
<path d="M609 12559 c-35 -13 -53 -56 -40 -92 19 -51 77 -62 116 -22 58 57 0
141 -76 114z"/>
<path d="M870 12557 c-13 -7 -29 -25 -35 -40 -20 -60 48 -117 103 -87 51 29
45 110 -10 129 -17 6 -31 11 -32 11 -1 0 -12 -6 -26 -13z"/>
<path d="M1143 12560 c-49 -20 -56 -90 -11 -123 47 -35 108 -3 108 57 0 50
-50 84 -97 66z"/>
<path d="M1420 12563 c-31 -12 -50 -37 -50 -69 0 -92 130 -95 138 -2 4 47 -44
87 -88 71z"/>
<path d="M1677 12558 c-45 -16 -54 -88 -15 -120 28 -25 65 -22 93 7 58 57 0
141 -78 113z"/>
<path d="M1940 12557 c-77 -39 -24 -160 58 -131 63 22 63 111 0 133 -17 6 -31
11 -32 11 -1 0 -12 -6 -26 -13z"/>
<path d="M2213 12560 c-77 -31 -40 -152 42 -136 37 8 55 30 55 71 0 49 -51 83
-97 65z"/>
<path d="M2490 12563 c-31 -12 -50 -37 -50 -69 0 -92 130 -95 138 -2 4 47 -44
87 -88 71z"/>
<path d="M2750 12559 c-31 -13 -40 -26 -40 -66 0 -67 69 -95 115 -48 57 56 -1
143 -75 114z"/>
<path d="M3012 12559 c-22 -8 -42 -45 -42 -75 0 -23 47 -64 73 -64 40 0 71 32
71 74 0 20 -7 42 -14 50 -21 19 -61 26 -88 15z"/>
<path d="M3283 12560 c-47 -19 -56 -78 -17 -117 20 -20 31 -24 57 -19 39 8 57
30 57 72 0 31 -21 64 -40 64 -5 0 -14 2 -22 4 -7 3 -23 1 -35 -4z"/>
<path d="M3560 12563 c-55 -20 -68 -87 -24 -122 15 -12 34 -21 44 -21 33 0 70
39 70 74 0 46 -49 84 -90 69z"/>
<path d="M3830 12562 c-74 -23 -61 -142 15 -142 32 0 75 41 75 72 0 47 -47 83
-90 70z"/>
<path d="M4084 12555 c-78 -33 -32 -152 50 -131 64 16 71 107 11 132 -24 10
-37 10 -61 -1z"/>
<path d="M4363 12562 c-28 -4 -53 -38 -53 -70 0 -31 43 -72 75 -72 35 0 65 33
65 73 0 17 -4 37 -8 44 -10 16 -52 30 -79 25z"/>
<path d="M4634 12562 c-58 -9 -72 -88 -22 -125 47 -35 108 -3 108 57 0 46 -38
76 -86 68z"/>
<path d="M4900 12562 c-51 -16 -68 -84 -30 -122 26 -26 60 -25 94 1 58 46 7
143 -64 121z"/>
<path d="M5159 12558 c-15 -5 -32 -22 -39 -38 -25 -61 41 -122 98 -89 81 45
29 157 -59 127z"/>
<path d="M5433 12562 c-28 -4 -53 -38 -53 -70 0 -30 43 -72 73 -72 30 0 65 28
68 55 8 59 -30 96 -88 87z"/>
<path d="M5703 12562 c-54 -8 -71 -87 -26 -122 51 -40 113 -9 113 55 0 46 -38
75 -87 67z"/>
<path d="M5970 12562 c-51 -16 -68 -84 -30 -122 26 -26 60 -25 94 1 58 46 7
143 -64 121z"/>
<path d="M6228 12558 c-35 -12 -53 -60 -35 -97 17 -36 61 -50 95 -30 81 45 29
157 -60 127z"/>
<path d="M6492 12560 c-78 -32 -34 -153 48 -135 62 14 71 114 13 136 -29 11
-31 11 -61 -1z"/>
<path d="M6746 12549 c-19 -15 -26 -30 -26 -54 0 -36 36 -75 70 -75 34 0 70
39 70 75 0 36 -36 75 -70 75 -10 0 -29 -9 -44 -21z"/>
<path d="M7016 12549 c-71 -56 9 -166 82 -112 38 28 41 75 8 108 -31 30 -55
32 -90 4z"/>
<path d="M7292 12560 c-27 -11 -44 -52 -36 -85 8 -31 23 -43 62 -51 61 -12
105 67 65 114 -22 25 -60 35 -91 22z"/>
<path d="M7560 12557 c-82 -42 -18 -166 65 -126 51 24 49 110 -2 130 -31 11
-33 11 -63 -4z"/>
<path d="M7816 12549 c-36 -28 -33 -83 6 -112 73 -54 153 56 82 112 -34 27
-54 26 -88 0z"/>
<path d="M8086 12549 c-19 -15 -26 -30 -26 -54 0 -36 36 -75 70 -75 34 0 70
39 70 75 0 36 -36 75 -70 75 -10 0 -29 -9 -44 -21z"/>
<path d="M8364 12560 c-55 -22 -44 -122 15 -135 69 -15 118 61 74 113 -21 25
-60 35 -89 22z"/>
<path d="M8633 12560 c-47 -19 -56 -78 -17 -117 20 -20 31 -24 57 -19 17 4 38
13 46 21 19 19 19 81 1 99 -20 20 -60 27 -87 16z"/>
<path d="M8885 12545 c-14 -13 -25 -36 -25 -50 0 -29 40 -75 65 -75 20 0 57
19 67 34 4 6 8 25 8 41 0 36 -8 48 -37 64 -33 17 -51 14 -78 -14z"/>
<path d="M9156 12549 c-19 -15 -26 -30 -26 -54 0 -36 36 -75 70 -75 34 0 70
39 70 75 0 36 -36 75 -70 75 -10 0 -29 -9 -44 -21z"/>
<path d="M9435 12558 c-28 -16 -35 -28 -35 -64 0 -40 18 -62 57 -70 62 -12
106 66 66 114 -22 26 -62 35 -88 20z"/>
<path d="M9702 12560 c-22 -9 -42 -46 -42 -76 0 -23 47 -64 73 -64 40 0 71 32
71 74 0 20 -7 43 -14 50 -20 20 -60 27 -88 16z"/>
<path d="M9973 12560 c-47 -19 -56 -78 -17 -117 20 -20 31 -24 57 -19 39 8 57
30 57 70 0 37 -7 49 -37 65 -25 13 -30 13 -60 1z"/>
<path d="M10250 12563 c-55 -20 -68 -87 -24 -122 15 -12 34 -21 44 -21 33 0
70 39 70 74 0 46 -49 84 -90 69z"/>
<path d="M10505 12558 c-28 -16 -35 -28 -35 -64 0 -40 18 -62 57 -70 62 -12
106 66 66 114 -22 26 -62 35 -88 20z"/>
<path d="M10772 12560 c-45 -19 -51 -96 -9 -125 32 -22 65 -18 94 11 20 20 24
31 19 57 -4 17 -12 37 -19 44 -18 17 -59 24 -85 13z"/>
<path d="M11043 12560 c-47 -19 -56 -78 -17 -117 20 -20 31 -24 57 -19 39 8
57 30 57 70 0 37 -7 49 -37 65 -25 13 -30 13 -60 1z"/>
<path d="M11320 12563 c-55 -20 -68 -87 -24 -122 15 -12 34 -21 44 -21 33 0
70 39 70 74 0 46 -49 84 -90 69z"/>
<path d="M11567 12550 c-72 -57 8 -167 81 -113 51 38 34 114 -28 128 -18 4
-34 0 -53 -15z"/>
<path d="M11842 12560 c-67 -28 -39 -140 36 -140 30 0 72 43 72 73 0 51 -59
87 -108 67z"/>
<path d="M12110 12557 c-82 -42 -18 -166 65 -126 51 24 50 104 -1 128 -31 14
-33 14 -64 -2z"/>
<path d="M610 12293 c-41 -15 -55 -87 -22 -116 23 -21 71 -22 97 -3 23 17 26
80 5 100 -18 17 -59 27 -80 19z"/>
<path d="M855 12275 c-22 -21 -26 -32 -21 -58 8 -39 30 -57 71 -57 39 0 65 27
65 66 0 40 -18 62 -57 70 -26 5 -37 1 -58 -21z"/>
<path d="M1125 12275 c-48 -47 -22 -115 44 -115 70 0 99 77 45 119 -35 27 -59
26 -89 -4z"/>
<path d="M1396 12279 c-19 -15 -26 -30 -26 -53 0 -42 26 -66 73 -66 64 0 89
69 42 115 -30 30 -54 31 -89 4z"/>
<path d="M1680 12293 c-41 -15 -55 -87 -22 -116 22 -20 71 -22 95 -4 9 6 20
26 23 44 5 26 1 37 -19 57 -25 25 -46 30 -77 19z"/>
<path d="M1942 12290 c-42 -18 -51 -80 -16 -115 21 -21 77 -19 97 3 20 22 22
71 5 95 -17 21 -57 29 -86 17z"/>
<path d="M2195 12275 c-48 -47 -22 -115 44 -115 70 0 99 77 45 119 -35 27 -59
26 -89 -4z"/>
<path d="M2466 12279 c-30 -24 -34 -63 -10 -97 11 -16 25 -22 54 -22 44 0 70
26 70 71 0 30 -40 69 -70 69 -10 0 -29 -9 -44 -21z"/>
<path d="M2745 12288 c-28 -16 -35 -28 -35 -64 0 -38 27 -64 66 -64 40 0 62
18 70 57 5 26 1 37 -19 57 -28 28 -51 32 -82 14z"/>
<path d="M3012 12290 c-12 -5 -27 -21 -32 -36 -19 -50 11 -94 65 -94 51 0 71
27 65 85 -4 40 -54 63 -98 45z"/>
<path d="M3265 12275 c-48 -47 -19 -115 48 -115 41 0 67 26 67 66 0 35 -8 47
-37 63 -33 17 -51 14 -78 -14z"/>
<path d="M3536 12279 c-30 -24 -34 -63 -10 -97 11 -16 25 -22 54 -22 44 0 70
26 70 71 0 30 -40 69 -70 69 -10 0 -29 -9 -44 -21z"/>
<path d="M3815 12288 c-28 -16 -35 -28 -35 -64 0 -40 27 -64 73 -64 59 0 88
63 50 108 -22 26 -62 35 -88 20z"/>
<path d="M4080 12287 c-28 -14 -40 -52 -28 -87 12 -31 25 -40 65 -40 75 0 97
104 28 130 -33 12 -35 12 -65 -3z"/>
<path d="M4353 12290 c-71 -29 -47 -130 30 -130 41 0 67 26 67 66 0 35 -8 47
-37 63 -25 13 -30 13 -60 1z"/>
<path d="M4606 12279 c-52 -41 -24 -119 43 -119 46 0 71 24 71 68 0 33 -38 72
-70 72 -10 0 -29 -9 -44 -21z"/>
<path d="M4877 12280 c-33 -26 -37 -78 -9 -103 28 -25 87 -22 106 5 48 68 -33
148 -97 98z"/>
<path d="M5160 12293 c-40 -15 -55 -87 -24 -117 19 -20 74 -21 99 -2 23 17 26
80 5 100 -18 17 -59 27 -80 19z"/>
<path d="M5423 12290 c-46 -19 -54 -98 -13 -120 53 -28 110 1 110 56 0 35 -8
47 -37 63 -25 13 -30 13 -60 1z"/>
<path d="M5675 12275 c-48 -47 -22 -115 44 -115 70 0 99 77 45 119 -35 27 -59
26 -89 -4z"/>
<path d="M5946 12279 c-19 -15 -26 -30 -26 -53 0 -42 26 -66 73 -66 64 0 89
69 42 115 -30 30 -54 31 -89 4z"/>
<path d="M6230 12293 c-41 -15 -55 -87 -22 -116 23 -21 71 -22 97 -3 23 17 26
80 5 100 -18 17 -59 27 -80 19z"/>
<path d="M6475 12275 c-22 -21 -26 -32 -21 -58 8 -39 30 -57 71 -57 39 0 65
27 65 66 0 40 -18 62 -57 70 -26 5 -37 1 -58 -21z"/>
<path d="M6746 12279 c-53 -41 -21 -119 48 -119 64 0 90 79 40 119 -15 12 -34
21 -44 21 -10 0 -29 -9 -44 -21z"/>
<path d="M7025 12288 c-28 -16 -35 -28 -35 -64 0 -39 27 -64 68 -64 66 0 94
69 47 115 -26 27 -49 31 -80 13z"/>
<path d="M7280 12280 c-26 -26 -26 -81 -2 -103 19 -17 68 -22 88 -9 15 10 34
47 34 67 0 25 -46 65 -75 65 -14 0 -34 -9 -45 -20z"/>
<path d="M7545 12275 c-28 -27 -31 -45 -14 -78 16 -30 28 -37 65 -37 39 0 64
27 64 68 0 66 -69 94 -115 47z"/>
<path d="M7815 12275 c-48 -47 -19 -115 48 -115 41 0 67 26 67 66 0 35 -8 47
-37 63 -33 17 -51 14 -78 -14z"/>
<path d="M8086 12279 c-52 -41 -25 -119 42 -119 66 0 94 69 47 115 -30 30 -54
31 -89 4z"/>
<path d="M8370 12293 c-41 -15 -55 -87 -22 -116 19 -17 68 -22 88 -9 15 10 34
47 34 67 0 9 -11 27 -25 40 -23 24 -44 29 -75 18z"/>
<path d="M8623 12285 c-27 -19 -37 -59 -22 -88 16 -30 28 -37 65 -37 40 0 64
27 64 73 0 57 -58 86 -107 52z"/>
<path d="M8885 12275 c-48 -47 -19 -115 48 -115 41 0 67 26 67 66 0 35 -8 47
-37 63 -33 17 -51 14 -78 -14z"/>
<path d="M9156 12279 c-30 -24 -34 -63 -10 -97 11 -16 25 -22 54 -22 44 0 70
26 70 71 0 30 -40 69 -70 69 -10 0 -29 -9 -44 -21z"/>
<path d="M9440 12293 c-41 -15 -55 -87 -22 -116 22 -20 71 -22 95 -4 9 6 20
26 23 44 5 26 1 37 -19 57 -25 25 -46 30 -77 19z"/>
<path d="M9697 12289 c-38 -23 -41 -98 -4 -121 21 -13 75 -9 91 8 23 23 24 79
3 101 -18 18 -69 25 -90 12z"/>
<path d="M9955 12275 c-48 -47 -19 -115 48 -115 41 0 67 26 67 66 0 35 -8 47
-37 63 -33 17 -51 14 -78 -14z"/>
<path d="M10226 12279 c-30 -24 -34 -63 -10 -97 11 -16 25 -22 54 -22 44 0 70
26 70 71 0 30 -40 69 -70 69 -10 0 -29 -9 -44 -21z"/>
<path d="M10505 12288 c-28 -16 -35 -28 -35 -64 0 -39 27 -64 68 -64 66 0 94
69 47 115 -26 27 -49 31 -80 13z"/>
<path d="M10774 12290 c-28 -11 -35 -23 -36 -60 -1 -40 27 -70 66 -70 39 0 52
9 65 43 13 33 0 71 -28 86 -23 13 -38 13 -67 1z"/>
<path d="M11025 12275 c-22 -21 -26 -32 -21 -58 8 -39 30 -57 71 -57 39 0 65
27 65 66 0 40 -18 62 -57 70 -26 5 -37 1 -58 -21z"/>
<path d="M11296 12279 c-30 -24 -34 -63 -10 -97 11 -16 25 -22 54 -22 44 0 70
26 70 71 0 30 -40 69 -70 69 -10 0 -29 -9 -44 -21z"/>
<path d="M11575 12288 c-28 -16 -35 -28 -35 -64 0 -39 27 -64 68 -64 66 0 94
69 47 115 -26 27 -49 31 -80 13z"/>
<path d="M11850 12293 c-41 -15 -55 -87 -22 -116 19 -17 68 -22 88 -9 21 13
34 52 28 77 -10 42 -52 63 -94 48z"/>
<path d="M12095 12275 c-22 -21 -26 -32 -21 -58 8 -39 30 -57 71 -57 39 0 65
27 65 66 0 40 -18 62 -57 70 -26 5 -37 1 -58 -21z"/>
<path d="M590 12010 c-28 -28 -27 -84 2 -104 51 -36 111 -6 111 56 0 59 -72
89 -113 48z"/>
<path d="M859 12012 c-45 -37 -17 -122 40 -122 43 0 71 26 71 66 0 64 -62 95
-111 56z"/>
<path d="M1125 12005 c-30 -30 -31 -54 -4 -89 14 -17 30 -26 50 -26 65 0 93
80 43 119 -35 27 -59 26 -89 -4z"/>
<path d="M1396 12009 c-50 -39 -22 -119 43 -119 33 0 71 39 71 72 0 24 -44 68
-68 68 -11 0 -31 -9 -46 -21z"/>
<path d="M1660 12010 c-28 -28 -27 -84 2 -104 51 -36 111 -6 111 56 0 59 -72
89 -113 48z"/>
<path d="M1932 12014 c-28 -20 -31 -83 -4 -107 43 -39 112 -8 112 49 0 62 -58
94 -108 58z"/>
<path d="M2195 12005 c-30 -30 -31 -54 -4 -89 39 -49 119 -22 119 42 0 33 -8
45 -37 61 -33 17 -51 14 -78 -14z"/>
<path d="M2466 12009 c-50 -39 -22 -119 42 -119 34 0 72 37 72 69 0 27 -42 71
-68 71 -11 0 -31 -9 -46 -21z"/>
<path d="M2730 12010 c-43 -43 -11 -120 49 -120 39 0 75 43 66 80 -13 55 -77
78 -115 40z"/>
<path d="M3002 12014 c-28 -20 -31 -83 -4 -107 43 -39 112 -8 112 49 0 62 -58
94 -108 58z"/>
<path d="M3265 12005 c-30 -30 -31 -54 -4 -89 39 -49 119 -22 119 42 0 33 -8
45 -37 61 -33 17 -51 14 -78 -14z"/>
<path d="M3535 12005 c-30 -29 -32 -68 -5 -95 41 -41 120 -12 120 45 0 31 -41
75 -70 75 -11 0 -32 -11 -45 -25z"/>
<path d="M3815 12018 c-27 -15 -35 -28 -35 -60 0 -64 80 -91 119 -42 27 35 26
59 -4 89 -26 27 -49 31 -80 13z"/>
<path d="M4070 12010 c-26 -26 -26 -81 -2 -103 25 -22 75 -21 95 1 25 28 22
87 -5 106 -31 22 -64 20 -88 -4z"/>
<path d="M4343 12013 c-33 -27 -38 -64 -13 -96 55 -70 161 15 108 86 -20 26
-70 32 -95 10z"/>
<path d="M4605 12005 c-46 -45 -19 -115 45 -115 65 0 94 79 44 119 -35 27 -59
26 -89 -4z"/>
<path d="M4876 12009 c-50 -39 -22 -119 43 -119 33 0 71 39 71 72 0 24 -44 68
-68 68 -11 0 -31 -9 -46 -21z"/>
<path d="M5160 12023 c-44 -16 -55 -91 -18 -117 53 -37 108 -8 108 57 0 51
-40 78 -90 60z"/>
<path d="M5410 12012 c-46 -37 -19 -122 39 -122 42 0 71 26 71 64 0 42 -17 64
-55 72 -22 4 -38 0 -55 -14z"/>
<path d="M5675 12005 c-28 -27 -31 -45 -14 -78 16 -29 28 -37 62 -37 63 0 90
80 41 119 -35 27 -59 26 -89 -4z"/>
<path d="M5946 12009 c-50 -39 -22 -119 43 -119 33 0 71 39 71 72 0 24 -44 68
-68 68 -11 0 -31 -9 -46 -21z"/>
<path d="M6230 12023 c-44 -16 -55 -91 -18 -117 51 -36 111 -6 111 56 0 48
-45 78 -93 61z"/>
<path d="M6479 12012 c-47 -39 -16 -122 47 -122 33 0 64 34 64 70 0 60 -64 90
-111 52z"/>
<path d="M6745 12005 c-30 -30 -31 -54 -4 -89 39 -50 119 -22 119 42 0 34 -37
72 -69 72 -12 0 -33 -11 -46 -25z"/>
<path d="M7010 12010 c-11 -11 -20 -33 -20 -50 0 -65 79 -94 119 -44 27 35 26
59 -4 89 -29 30 -68 32 -95 5z"/>
<path d="M7280 12010 c-28 -28 -27 -84 2 -104 49 -35 111 -4 111 54 0 61 -71
92 -113 50z"/>
<path d="M7549 12012 c-47 -39 -16 -122 47 -122 33 0 64 34 64 70 0 60 -64 90
-111 52z"/>
<path d="M7815 12005 c-30 -30 -31 -54 -4 -89 40 -50 119 -21 119 44 0 35 -34
70 -67 70 -13 0 -35 -11 -48 -25z"/>
<path d="M8082 12007 c-43 -46 -14 -117 47 -117 33 0 71 39 71 72 0 26 -44 68
-73 68 -13 0 -33 -10 -45 -23z"/>
<path d="M8350 12010 c-41 -41 -12 -120 44 -120 38 0 69 32 69 70 0 61 -71 92
-113 50z"/>
<path d="M8622 12014 c-16 -11 -22 -25 -22 -54 0 -29 6 -43 22 -54 49 -35 108
-7 108 50 0 62 -58 94 -108 58z"/>
<path d="M8885 12005 c-30 -30 -31 -54 -4 -89 40 -50 119 -21 119 44 0 64 -70
91 -115 45z"/>
<path d="M9152 12007 c-43 -46 -14 -117 47 -117 33 0 71 39 71 72 0 26 -44 68
-73 68 -13 0 -33 -10 -45 -23z"/>
<path d="M9420 12010 c-11 -11 -20 -33 -20 -50 0 -65 79 -94 119 -44 27 35 26
59 -4 89 -29 30 -68 32 -95 5z"/>
<path d="M9692 12014 c-16 -11 -22 -25 -22 -54 0 -29 6 -43 22 -54 51 -36 108
-7 108 54 0 42 -26 70 -65 70 -11 0 -31 -7 -43 -16z"/>
<path d="M9955 12005 c-30 -30 -31 -54 -4 -89 40 -50 119 -21 119 44 0 64 -70
91 -115 45z"/>
<path d="M10226 12009 c-32 -25 -34 -66 -6 -97 42 -45 120 -15 120 47 0 32
-39 71 -70 71 -10 0 -29 -9 -44 -21z"/>
<path d="M10490 12010 c-11 -11 -20 -33 -20 -50 0 -65 79 -94 119 -44 27 35
26 59 -4 89 -29 30 -68 32 -95 5z"/>
<path d="M10762 12014 c-16 -11 -22 -25 -22 -54 0 -29 6 -43 22 -54 51 -36
108 -7 108 54 0 42 -26 70 -65 70 -11 0 -31 -7 -43 -16z"/>
<path d="M11032 12013 c-32 -27 -37 -64 -12 -96 41 -51 120 -23 120 43 0 59
-64 90 -108 53z"/>
<path d="M11295 12005 c-14 -13 -25 -35 -25 -48 0 -31 39 -67 73 -67 63 0 90
80 41 119 -35 27 -59 26 -89 -4z"/>
<path d="M11562 12010 c-45 -42 -15 -120 47 -120 33 0 71 39 71 72 0 26 -44
68 -73 68 -13 0 -33 -9 -45 -20z"/>
<path d="M11830 12010 c-28 -28 -27 -84 2 -104 51 -36 108 -7 108 54 0 29 -6
43 -22 54 -31 22 -64 20 -88 -4z"/>
<path d="M12099 12012 c-28 -23 -30 -73 -4 -102 39 -43 115 -11 115 50 0 60
-64 90 -111 52z"/>
<path d="M1390 11740 c-29 -29 -26 -74 6 -99 33 -26 55 -26 85 -3 15 13 22 30
22 52 0 61 -71 92 -113 50z"/>
<path d="M2462 11737 c-30 -32 -28 -71 4 -96 15 -12 35 -21 46 -21 25 0 68 44
68 70 0 28 -43 70 -73 70 -13 0 -33 -10 -45 -23z"/>
<path d="M3265 11735 c-14 -13 -25 -34 -25 -45 0 -26 43 -70 68 -70 32 0 72
38 72 69 0 33 -37 71 -69 71 -12 0 -33 -11 -46 -25z"/>
<path d="M9150 11740 c-27 -27 -25 -66 6 -96 29 -30 67 -27 97 8 24 28 21 55
-8 83 -29 30 -68 32 -95 5z"/>
<path d="M9955 11735 c-14 -13 -25 -34 -25 -45 0 -26 43 -70 68 -70 11 0 31 9
46 21 33 26 35 70 4 99 -29 27 -64 25 -93 -5z"/>
<path d="M11029 11742 c-45 -37 -16 -122 41 -122 31 0 70 39 70 71 0 59 -64
88 -111 51z"/>
<path d="M12099 11742 c-45 -37 -16 -122 41 -122 31 0 70 39 70 71 0 59 -64
88 -111 51z"/>
</g>
</svg>
