<svg width="50" height="50" viewBox="0 0 50 50" fill="none" xmlns="http://www.w3.org/2000/svg">
<path d="M50 25C50 38.8071 38.8071 50 25 50C11.1929 50 0 38.8071 0 25C0 11.1929 11.1929 0 25 0C38.8071 0 50 11.1929 50 25Z" fill="#040A0E"/>
<path d="M10.5254 34.0638C20.1597 34.0638 29.7941 34.0638 39.7203 34.0638C39.7203 35.1592 39.7203 36.2545 39.7203 37.383C30.086 37.383 20.4517 37.383 10.5254 37.383C10.5254 36.2877 10.5254 35.1924 10.5254 34.0638Z" fill="#4EB9FA"/>
<path d="M10.2642 14.4545H14.0568L18.0625 24.2273H18.233L22.2386 14.4545H26.0312V29H23.0483V19.5327H22.9276L19.1634 28.929H17.1321L13.3679 19.4972H13.2472V29H10.2642V14.4545ZM28.565 29V14.4545H34.3036C35.4021 14.4545 36.3396 14.651 37.1161 15.044C37.8974 15.4323 38.4916 15.9839 38.8988 16.6989C39.3107 17.4091 39.5167 18.2448 39.5167 19.206C39.5167 20.1719 39.3084 21.0028 38.8917 21.6989C38.475 22.3902 37.8713 22.9205 37.0806 23.2898C36.2946 23.6591 35.3429 23.8438 34.2255 23.8438H30.3832V21.3722H33.7283C34.3155 21.3722 34.8031 21.2917 35.1914 21.1307C35.5797 20.9697 35.8685 20.7282 36.0579 20.4062C36.252 20.0843 36.3491 19.6842 36.3491 19.206C36.3491 18.723 36.252 18.3158 36.0579 17.9844C35.8685 17.6529 35.5773 17.402 35.1843 17.2315C34.796 17.0563 34.306 16.9688 33.7141 16.9688H31.6403V29H28.565ZM36.4201 22.3807L40.0352 29H36.6403L33.1033 22.3807H36.4201Z" fill="white"/>
</svg>
